<?xml version="1.0" encoding="UTF-8" standalone="no"?>
<!DOCTYPE svg PUBLIC "-//W3C//DTD SVG 1.1//EN"
 "http://www.w3.org/Graphics/SVG/1.1/DTD/svg11.dtd">
<!-- Generated by graphviz version 2.40.1 (20161225.0304)
 -->
<!-- Title: public.validators Pages: 1 -->
<svg width="635pt" height="1259pt"
 viewBox="0.00 0.00 634.50 1259.00" xmlns="http://www.w3.org/2000/svg" xmlns:xlink="http://www.w3.org/1999/xlink">
<g id="graph0" class="graph" transform="scale(1 1) rotate(0) translate(4 1255)">
<title>public.validators</title>
<polygon fill="#ffffff" stroke="transparent" points="-4,4 -4,-1255 630.5,-1255 630.5,4 -4,4"/>
<!-- public.validators -->
<g id="node1" class="node">
<title>public.validators</title>
<polygon fill="#efefef" stroke="transparent" points="328,-682.5 328,-717.5 581,-717.5 581,-682.5 328,-682.5"/>
<polygon fill="none" stroke="#000000" points="328,-682.5 328,-717.5 581,-717.5 581,-682.5 328,-682.5"/>
<text text-anchor="start" x="341.3647" y="-695.3" font-family="Arial Bold" font-size="18.00" fill="#000000">public.validators</text>
<text text-anchor="start" x="470.3815" y="-695.3" font-family="Arial" font-size="14.00" fill="#000000"> </text>
<text text-anchor="start" x="474.2721" y="-695.3" font-family="Arial" font-size="14.00" fill="#666666">[BASE TABLE]</text>
<polygon fill="none" stroke="#000000" points="328,-652.5 328,-682.5 581,-682.5 581,-652.5 328,-652.5"/>
<text text-anchor="start" x="335" y="-663.9" font-family="Arial" font-size="14.00" fill="#000000">address </text>
<text text-anchor="start" x="388.6816" y="-663.9" font-family="Arial" font-size="14.00" fill="#666666">[text]</text>
<polygon fill="none" stroke="#000000" points="328,-622.5 328,-652.5 581,-652.5 581,-622.5 328,-622.5"/>
<text text-anchor="start" x="335" y="-633.9" font-family="Arial" font-size="14.00" fill="#000000">chain_id </text>
<text text-anchor="start" x="391.0168" y="-633.9" font-family="Arial" font-size="14.00" fill="#666666">[text]</text>
<polygon fill="none" stroke="#000000" points="328,-592.5 328,-622.5 581,-622.5 581,-592.5 328,-592.5"/>
<text text-anchor="start" x="335" y="-603.9" font-family="Arial" font-size="14.00" fill="#000000">created_at </text>
<text text-anchor="start" x="405.028" y="-603.9" font-family="Arial" font-size="14.00" fill="#666666">[timestamp with time zone]</text>
<polygon fill="none" stroke="#000000" points="328,-562.5 328,-592.5 581,-592.5 581,-562.5 328,-562.5"/>
<text text-anchor="start" x="335" y="-573.9" font-family="Arial" font-size="14.00" fill="#000000">payment_address </text>
<text text-anchor="start" x="450.1458" y="-573.9" font-family="Arial" font-size="14.00" fill="#666666">[text]</text>
<polygon fill="none" stroke="#000000" points="328,-532.5 328,-562.5 581,-562.5 581,-532.5 328,-532.5"/>
<text text-anchor="start" x="335" y="-543.9" font-family="Arial" font-size="14.00" fill="#000000">pub_key_bytes </text>
<text text-anchor="start" x="433.042" y="-543.9" font-family="Arial" font-size="14.00" fill="#666666">[bytea]</text>
<polygon fill="none" stroke="#000000" points="328,-502.5 328,-532.5 581,-532.5 581,-502.5 328,-502.5"/>
<text text-anchor="start" x="335" y="-513.9" font-family="Arial" font-size="14.00" fill="#000000">pub_key_type </text>
<text text-anchor="start" x="426.042" y="-513.9" font-family="Arial" font-size="14.00" fill="#666666">[text]</text>
<polygon fill="none" stroke="#000000" points="328,-472.5 328,-502.5 581,-502.5 581,-472.5 328,-472.5"/>
<text text-anchor="start" x="334.6915" y="-483.9" font-family="Arial" font-size="14.00" fill="#000000">updated_at </text>
<text text-anchor="start" x="408.6241" y="-483.9" font-family="Arial" font-size="14.00" fill="#666666">[timestamp with time zone]</text>
<polygon fill="none" stroke="#000000" stroke-width="3" points="326,-471.5 326,-719.5 582,-719.5 582,-471.5 326,-471.5"/>
</g>
<!-- public.chains -->
<g id="node3" class="node">
<title>public.chains</title>
<polygon fill="#efefef" stroke="transparent" points="328,-312.5 328,-347.5 581,-347.5 581,-312.5 328,-312.5"/>
<polygon fill="none" stroke="#000000" points="328,-312.5 328,-347.5 581,-347.5 581,-312.5 328,-312.5"/>
<text text-anchor="start" x="353.8621" y="-325.3" font-family="Arial Bold" font-size="18.00" fill="#000000">public.chains</text>
<text text-anchor="start" x="457.8841" y="-325.3" font-family="Arial" font-size="14.00" fill="#000000"> </text>
<text text-anchor="start" x="461.7747" y="-325.3" font-family="Arial" font-size="14.00" fill="#666666">[BASE TABLE]</text>
<polygon fill="none" stroke="#000000" points="328,-282.5 328,-312.5 581,-312.5 581,-282.5 328,-282.5"/>
<text text-anchor="start" x="335" y="-293.9" font-family="Arial" font-size="14.00" fill="#000000">created_at </text>
<text text-anchor="start" x="405.028" y="-293.9" font-family="Arial" font-size="14.00" fill="#666666">[timestamp with time zone]</text>
<polygon fill="none" stroke="#000000" points="328,-252.5 328,-282.5 581,-282.5 581,-252.5 328,-252.5"/>
<text text-anchor="start" x="335" y="-263.9" font-family="Arial" font-size="14.00" fill="#000000">id </text>
<text text-anchor="start" x="349.7798" y="-263.9" font-family="Arial" font-size="14.00" fill="#666666">[text]</text>
<polygon fill="none" stroke="#000000" points="328,-222.5 328,-252.5 581,-252.5 581,-222.5 328,-222.5"/>
<text text-anchor="start" x="335" y="-233.9" font-family="Arial" font-size="14.00" fill="#000000">mekatek_payment_address </text>
<text text-anchor="start" x="510.8274" y="-233.9" font-family="Arial" font-size="14.00" fill="#666666">[text]</text>
<polygon fill="none" stroke="#000000" points="328,-192.5 328,-222.5 581,-222.5 581,-192.5 328,-192.5"/>
<text text-anchor="start" x="335" y="-203.9" font-family="Arial" font-size="14.00" fill="#000000">network </text>
<text text-anchor="start" x="387.8962" y="-203.9" font-family="Arial" font-size="14.00" fill="#666666">[text]</text>
<polygon fill="none" stroke="#000000" points="328,-162.5 328,-192.5 581,-192.5 581,-162.5 328,-162.5"/>
<text text-anchor="start" x="335" y="-173.9" font-family="Arial" font-size="14.00" fill="#000000">node_uris </text>
<text text-anchor="start" x="400.3534" y="-173.9" font-family="Arial" font-size="14.00" fill="#666666">[text[]]</text>
<polygon fill="none" stroke="#000000" points="328,-132.5 328,-162.5 581,-162.5 581,-132.5 328,-132.5"/>
<text text-anchor="start" x="335" y="-143.9" font-family="Arial" font-size="14.00" fill="#000000">payment_denom </text>
<text text-anchor="start" x="443.1458" y="-143.9" font-family="Arial" font-size="14.00" fill="#666666">[text]</text>
<polygon fill="none" stroke="#000000" points="328,-102.5 328,-132.5 581,-132.5 581,-102.5 328,-102.5"/>
<text text-anchor="start" x="335" y="-113.9" font-family="Arial" font-size="14.00" fill="#000000">retention_time </text>
<text text-anchor="start" x="427.575" y="-113.9" font-family="Arial" font-size="14.00" fill="#666666">[text]</text>
<polygon fill="none" stroke="#000000" points="328,-72.5 328,-102.5 581,-102.5 581,-72.5 328,-72.5"/>
<text text-anchor="start" x="335" y="-83.9" font-family="Arial" font-size="14.00" fill="#000000">timeout </text>
<text text-anchor="start" x="384.7868" y="-83.9" font-family="Arial" font-size="14.00" fill="#666666">[text]</text>
<polygon fill="none" stroke="#000000" points="328,-42.5 328,-72.5 581,-72.5 581,-42.5 328,-42.5"/>
<text text-anchor="start" x="334.6915" y="-53.9" font-family="Arial" font-size="14.00" fill="#000000">updated_at </text>
<text text-anchor="start" x="408.6241" y="-53.9" font-family="Arial" font-size="14.00" fill="#666666">[timestamp with time zone]</text>
</g>
<!-- public.validators&#45;&gt;public.chains -->
<g id="edge2" class="edge">
<title>public.validators:chain_id&#45;&gt;public.chains:id</title>
<path fill="none" stroke="#000000" d="M317.8565,-635.5093C245.9296,-606.3863 249.3108,-267.5 328,-267.5"/>
<polygon fill="#000000" stroke="#000000" points="318.1872,-635.5741 327.1334,-641.9158 323.0936,-636.5371 328,-637.5 328,-637.5 328,-637.5 323.0936,-636.5371 328.8666,-633.0842 318.1872,-635.5741 318.1872,-635.5741"/>
<text text-anchor="start" x="88.8855" y="-647.5" font-family="Arial" font-size="10.00" fill="#000000">FOREIGN KEY (chain_id) REFERENCES chains(id)</text>
</g>
<!-- public.auctions -->
<g id="node2" class="node">
<title>public.auctions</title>
<polygon fill="#efefef" stroke="transparent" points="329,-1172.5 329,-1207.5 580,-1207.5 580,-1172.5 329,-1172.5"/>
<polygon fill="none" stroke="#000000" points="329,-1172.5 329,-1207.5 580,-1207.5 580,-1172.5 329,-1172.5"/>
<text text-anchor="start" x="346.3579" y="-1185.3" font-family="Arial Bold" font-size="18.00" fill="#000000">public.auctions</text>
<text text-anchor="start" x="465.3883" y="-1185.3" font-family="Arial" font-size="14.00" fill="#000000"> </text>
<text text-anchor="start" x="469.2789" y="-1185.3" font-family="Arial" font-size="14.00" fill="#666666">[BASE TABLE]</text>
<polygon fill="none" stroke="#000000" points="329,-1142.5 329,-1172.5 580,-1172.5 580,-1142.5 329,-1142.5"/>
<text text-anchor="start" x="336" y="-1153.9" font-family="Arial" font-size="14.00" fill="#000000">chain_id </text>
<text text-anchor="start" x="392.0168" y="-1153.9" font-family="Arial" font-size="14.00" fill="#666666">[text]</text>
<polygon fill="none" stroke="#000000" points="329,-1112.5 329,-1142.5 580,-1142.5 580,-1112.5 329,-1112.5"/>
<text text-anchor="start" x="336" y="-1123.9" font-family="Arial" font-size="14.00" fill="#000000">created_at </text>
<text text-anchor="start" x="406.028" y="-1123.9" font-family="Arial" font-size="14.00" fill="#666666">[timestamp with time zone]</text>
<polygon fill="none" stroke="#000000" points="329,-1082.5 329,-1112.5 580,-1112.5 580,-1082.5 329,-1082.5"/>
<text text-anchor="start" x="335.8675" y="-1093.9" font-family="Arial" font-size="14.00" fill="#000000">finished_at </text>
<text text-anchor="start" x="407.4481" y="-1093.9" font-family="Arial" font-size="14.00" fill="#666666">[timestamp with time zone]</text>
<polygon fill="none" stroke="#000000" points="329,-1052.5 329,-1082.5 580,-1082.5 580,-1052.5 329,-1052.5"/>
<text text-anchor="start" x="336" y="-1063.9" font-family="Arial" font-size="14.00" fill="#000000">height </text>
<text text-anchor="start" x="378.0182" y="-1063.9" font-family="Arial" font-size="14.00" fill="#666666">[bigint]</text>
<polygon fill="none" stroke="#000000" points="329,-1022.5 329,-1052.5 580,-1052.5 580,-1022.5 329,-1022.5"/>
<text text-anchor="start" x="336" y="-1033.9" font-family="Arial" font-size="14.00" fill="#000000">mekatek_payment_address </text>
<text text-anchor="start" x="511.8274" y="-1033.9" font-family="Arial" font-size="14.00" fill="#666666">[text]</text>
<polygon fill="none" stroke="#000000" points="329,-992.5 329,-1022.5 580,-1022.5 580,-992.5 329,-992.5"/>
<text text-anchor="start" x="336" y="-1003.9" font-family="Arial" font-size="14.00" fill="#000000">payment_denom </text>
<text text-anchor="start" x="444.1458" y="-1003.9" font-family="Arial" font-size="14.00" fill="#666666">[text]</text>
<polygon fill="none" stroke="#000000" points="329,-962.5 329,-992.5 580,-992.5 580,-962.5 329,-962.5"/>
<text text-anchor="start" x="336" y="-973.9" font-family="Arial" font-size="14.00" fill="#000000">registered_power </text>
<text text-anchor="start" x="448.0196" y="-973.9" font-family="Arial" font-size="14.00" fill="#666666">[bigint]</text>
<polygon fill="none" stroke="#000000" points="329,-932.5 329,-962.5 580,-962.5 580,-932.5 329,-932.5"/>
<text text-anchor="start" x="336" y="-943.9" font-family="Arial" font-size="14.00" fill="#000000">total_power </text>
<text text-anchor="start" x="412.2412" y="-943.9" font-family="Arial" font-size="14.00" fill="#666666">[bigint]</text>
<polygon fill="none" stroke="#000000" points="329,-902.5 329,-932.5 580,-932.5 580,-902.5 329,-902.5"/>
<text text-anchor="start" x="336" y="-913.9" font-family="Arial" font-size="14.00" fill="#000000">validator_address </text>
<text text-anchor="start" x="450.359" y="-913.9" font-family="Arial" font-size="14.00" fill="#666666">[text]</text>
<polygon fill="none" stroke="#000000" points="329,-872.5 329,-902.5 580,-902.5 580,-872.5 329,-872.5"/>
<text text-anchor="start" x="336" y="-883.9" font-family="Arial" font-size="14.00" fill="#000000">validator_allocation </text>
<text text-anchor="start" x="459.6914" y="-883.9" font-family="Arial" font-size="14.00" fill="#666666">[numeric]</text>
<polygon fill="none" stroke="#000000" points="329,-842.5 329,-872.5 580,-872.5 580,-842.5 329,-842.5"/>
<text text-anchor="start" x="336" y="-853.9" font-family="Arial" font-size="14.00" fill="#000000">validator_payment_address </text>
<text text-anchor="start" x="511.8232" y="-853.9" font-family="Arial" font-size="14.00" fill="#666666">[text]</text>
</g>
<!-- public.auctions&#45;&gt;public.validators -->
<g id="edge1" class="edge">
<title>public.auctions:validator_address&#45;&gt;public.validators:address</title>
<path fill="none" stroke="#000000" d="M318.9059,-916.7828C217.935,-902.1191 220.3603,-667.5 328,-667.5"/>
<polygon fill="#000000" stroke="#000000" points="319.0251,-916.7912 328.681,-921.9887 324.0126,-917.1456 329,-917.5 329,-917.5 329,-917.5 324.0126,-917.1456 329.319,-913.0113 319.0251,-916.7912 319.0251,-916.7912"/>
<text text-anchor="start" x="7.2125" y="-927.5" font-family="Arial" font-size="10.00" fill="#000000">FOREIGN KEY (validator_address) REFERENCES validators(address)</text>
</g>
</g>
</svg>
