<?xml version="1.0" encoding="UTF-8" standalone="no"?>
<!DOCTYPE svg PUBLIC "-//W3C//DTD SVG 1.1//EN"
 "http://www.w3.org/Graphics/SVG/1.1/DTD/svg11.dtd">
<!-- Generated by graphviz version 2.40.1 (20161225.0304)
 -->
<!-- Title: public.chains Pages: 1 -->
<svg width="1055pt" height="892pt"
 viewBox="0.00 0.00 1055.00 892.00" xmlns="http://www.w3.org/2000/svg" xmlns:xlink="http://www.w3.org/1999/xlink">
<g id="graph0" class="graph" transform="scale(1 1) rotate(0) translate(4 888)">
<title>public.chains</title>
<polygon fill="#ffffff" stroke="transparent" points="-4,4 -4,-888 1051,-888 1051,4 -4,4"/>
<!-- public.chains -->
<g id="node1" class="node">
<title>public.chains</title>
<polygon fill="#efefef" stroke="transparent" points="396.5,-315.5 396.5,-350.5 649.5,-350.5 649.5,-315.5 396.5,-315.5"/>
<polygon fill="none" stroke="#000000" points="396.5,-315.5 396.5,-350.5 649.5,-350.5 649.5,-315.5 396.5,-315.5"/>
<text text-anchor="start" x="422.3621" y="-328.3" font-family="Arial Bold" font-size="18.00" fill="#000000">public.chains</text>
<text text-anchor="start" x="526.3841" y="-328.3" font-family="Arial" font-size="14.00" fill="#000000"> </text>
<text text-anchor="start" x="530.2747" y="-328.3" font-family="Arial" font-size="14.00" fill="#666666">[BASE TABLE]</text>
<polygon fill="none" stroke="#000000" points="396.5,-285.5 396.5,-315.5 649.5,-315.5 649.5,-285.5 396.5,-285.5"/>
<text text-anchor="start" x="403.5" y="-296.9" font-family="Arial" font-size="14.00" fill="#000000">created_at </text>
<text text-anchor="start" x="473.528" y="-296.9" font-family="Arial" font-size="14.00" fill="#666666">[timestamp with time zone]</text>
<polygon fill="none" stroke="#000000" points="396.5,-255.5 396.5,-285.5 649.5,-285.5 649.5,-255.5 396.5,-255.5"/>
<text text-anchor="start" x="403.5" y="-266.9" font-family="Arial" font-size="14.00" fill="#000000">id </text>
<text text-anchor="start" x="418.2798" y="-266.9" font-family="Arial" font-size="14.00" fill="#666666">[text]</text>
<polygon fill="none" stroke="#000000" points="396.5,-225.5 396.5,-255.5 649.5,-255.5 649.5,-225.5 396.5,-225.5"/>
<text text-anchor="start" x="403.5" y="-236.9" font-family="Arial" font-size="14.00" fill="#000000">mekatek_payment_address </text>
<text text-anchor="start" x="579.3274" y="-236.9" font-family="Arial" font-size="14.00" fill="#666666">[text]</text>
<polygon fill="none" stroke="#000000" points="396.5,-195.5 396.5,-225.5 649.5,-225.5 649.5,-195.5 396.5,-195.5"/>
<text text-anchor="start" x="403.5" y="-206.9" font-family="Arial" font-size="14.00" fill="#000000">network </text>
<text text-anchor="start" x="456.3962" y="-206.9" font-family="Arial" font-size="14.00" fill="#666666">[text]</text>
<polygon fill="none" stroke="#000000" points="396.5,-165.5 396.5,-195.5 649.5,-195.5 649.5,-165.5 396.5,-165.5"/>
<text text-anchor="start" x="403.5" y="-176.9" font-family="Arial" font-size="14.00" fill="#000000">node_uris </text>
<text text-anchor="start" x="468.8534" y="-176.9" font-family="Arial" font-size="14.00" fill="#666666">[text[]]</text>
<polygon fill="none" stroke="#000000" points="396.5,-135.5 396.5,-165.5 649.5,-165.5 649.5,-135.5 396.5,-135.5"/>
<text text-anchor="start" x="403.5" y="-146.9" font-family="Arial" font-size="14.00" fill="#000000">payment_denom </text>
<text text-anchor="start" x="511.6458" y="-146.9" font-family="Arial" font-size="14.00" fill="#666666">[text]</text>
<polygon fill="none" stroke="#000000" points="396.5,-105.5 396.5,-135.5 649.5,-135.5 649.5,-105.5 396.5,-105.5"/>
<text text-anchor="start" x="403.5" y="-116.9" font-family="Arial" font-size="14.00" fill="#000000">retention_time </text>
<text text-anchor="start" x="496.075" y="-116.9" font-family="Arial" font-size="14.00" fill="#666666">[text]</text>
<polygon fill="none" stroke="#000000" points="396.5,-75.5 396.5,-105.5 649.5,-105.5 649.5,-75.5 396.5,-75.5"/>
<text text-anchor="start" x="403.5" y="-86.9" font-family="Arial" font-size="14.00" fill="#000000">timeout </text>
<text text-anchor="start" x="453.2868" y="-86.9" font-family="Arial" font-size="14.00" fill="#666666">[text]</text>
<polygon fill="none" stroke="#000000" points="396.5,-45.5 396.5,-75.5 649.5,-75.5 649.5,-45.5 396.5,-45.5"/>
<text text-anchor="start" x="403.1915" y="-56.9" font-family="Arial" font-size="14.00" fill="#000000">updated_at </text>
<text text-anchor="start" x="477.1241" y="-56.9" font-family="Arial" font-size="14.00" fill="#666666">[timestamp with time zone]</text>
<polygon fill="none" stroke="#000000" stroke-width="3" points="394.5,-44.5 394.5,-352.5 650.5,-352.5 650.5,-44.5 394.5,-44.5"/>
</g>
<!-- public.auctions -->
<g id="node2" class="node">
<title>public.auctions</title>
<polygon fill="#efefef" stroke="transparent" points="43.5,-805.5 43.5,-840.5 294.5,-840.5 294.5,-805.5 43.5,-805.5"/>
<polygon fill="none" stroke="#000000" points="43.5,-805.5 43.5,-840.5 294.5,-840.5 294.5,-805.5 43.5,-805.5"/>
<text text-anchor="start" x="60.8579" y="-818.3" font-family="Arial Bold" font-size="18.00" fill="#000000">public.auctions</text>
<text text-anchor="start" x="179.8883" y="-818.3" font-family="Arial" font-size="14.00" fill="#000000"> </text>
<text text-anchor="start" x="183.7789" y="-818.3" font-family="Arial" font-size="14.00" fill="#666666">[BASE TABLE]</text>
<polygon fill="none" stroke="#000000" points="43.5,-775.5 43.5,-805.5 294.5,-805.5 294.5,-775.5 43.5,-775.5"/>
<text text-anchor="start" x="50.5" y="-786.9" font-family="Arial" font-size="14.00" fill="#000000">chain_id </text>
<text text-anchor="start" x="106.5168" y="-786.9" font-family="Arial" font-size="14.00" fill="#666666">[text]</text>
<polygon fill="none" stroke="#000000" points="43.5,-745.5 43.5,-775.5 294.5,-775.5 294.5,-745.5 43.5,-745.5"/>
<text text-anchor="start" x="50.5" y="-756.9" font-family="Arial" font-size="14.00" fill="#000000">created_at </text>
<text text-anchor="start" x="120.528" y="-756.9" font-family="Arial" font-size="14.00" fill="#666666">[timestamp with time zone]</text>
<polygon fill="none" stroke="#000000" points="43.5,-715.5 43.5,-745.5 294.5,-745.5 294.5,-715.5 43.5,-715.5"/>
<text text-anchor="start" x="50.3675" y="-726.9" font-family="Arial" font-size="14.00" fill="#000000">finished_at </text>
<text text-anchor="start" x="121.9481" y="-726.9" font-family="Arial" font-size="14.00" fill="#666666">[timestamp with time zone]</text>
<polygon fill="none" stroke="#000000" points="43.5,-685.5 43.5,-715.5 294.5,-715.5 294.5,-685.5 43.5,-685.5"/>
<text text-anchor="start" x="50.5" y="-696.9" font-family="Arial" font-size="14.00" fill="#000000">height </text>
<text text-anchor="start" x="92.5182" y="-696.9" font-family="Arial" font-size="14.00" fill="#666666">[bigint]</text>
<polygon fill="none" stroke="#000000" points="43.5,-655.5 43.5,-685.5 294.5,-685.5 294.5,-655.5 43.5,-655.5"/>
<text text-anchor="start" x="50.5" y="-666.9" font-family="Arial" font-size="14.00" fill="#000000">mekatek_payment_address </text>
<text text-anchor="start" x="226.3274" y="-666.9" font-family="Arial" font-size="14.00" fill="#666666">[text]</text>
<polygon fill="none" stroke="#000000" points="43.5,-625.5 43.5,-655.5 294.5,-655.5 294.5,-625.5 43.5,-625.5"/>
<text text-anchor="start" x="50.5" y="-636.9" font-family="Arial" font-size="14.00" fill="#000000">payment_denom </text>
<text text-anchor="start" x="158.6458" y="-636.9" font-family="Arial" font-size="14.00" fill="#666666">[text]</text>
<polygon fill="none" stroke="#000000" points="43.5,-595.5 43.5,-625.5 294.5,-625.5 294.5,-595.5 43.5,-595.5"/>
<text text-anchor="start" x="50.5" y="-606.9" font-family="Arial" font-size="14.00" fill="#000000">registered_power </text>
<text text-anchor="start" x="162.5196" y="-606.9" font-family="Arial" font-size="14.00" fill="#666666">[bigint]</text>
<polygon fill="none" stroke="#000000" points="43.5,-565.5 43.5,-595.5 294.5,-595.5 294.5,-565.5 43.5,-565.5"/>
<text text-anchor="start" x="50.5" y="-576.9" font-family="Arial" font-size="14.00" fill="#000000">total_power </text>
<text text-anchor="start" x="126.7412" y="-576.9" font-family="Arial" font-size="14.00" fill="#666666">[bigint]</text>
<polygon fill="none" stroke="#000000" points="43.5,-535.5 43.5,-565.5 294.5,-565.5 294.5,-535.5 43.5,-535.5"/>
<text text-anchor="start" x="50.5" y="-546.9" font-family="Arial" font-size="14.00" fill="#000000">validator_address </text>
<text text-anchor="start" x="164.859" y="-546.9" font-family="Arial" font-size="14.00" fill="#666666">[text]</text>
<polygon fill="none" stroke="#000000" points="43.5,-505.5 43.5,-535.5 294.5,-535.5 294.5,-505.5 43.5,-505.5"/>
<text text-anchor="start" x="50.5" y="-516.9" font-family="Arial" font-size="14.00" fill="#000000">validator_allocation </text>
<text text-anchor="start" x="174.1914" y="-516.9" font-family="Arial" font-size="14.00" fill="#666666">[numeric]</text>
<polygon fill="none" stroke="#000000" points="43.5,-475.5 43.5,-505.5 294.5,-505.5 294.5,-475.5 43.5,-475.5"/>
<text text-anchor="start" x="50.5" y="-486.9" font-family="Arial" font-size="14.00" fill="#000000">validator_payment_address </text>
<text text-anchor="start" x="226.3232" y="-486.9" font-family="Arial" font-size="14.00" fill="#666666">[text]</text>
</g>
<!-- public.auctions&#45;&gt;public.chains -->
<g id="edge1" class="edge">
<title>public.auctions:chain_id&#45;&gt;public.chains:id</title>
<path fill="none" stroke="#000000" d="M304.5619,-788.8531C370.6577,-765.8179 328.5568,-507.7476 345.5,-433 362.2336,-359.1772 320.8044,-270.5 396.5,-270.5"/>
<polygon fill="#000000" stroke="#000000" points="304.3687,-788.8846 293.7731,-786.0591 299.4343,-789.6923 294.5,-790.5 294.5,-790.5 294.5,-790.5 299.4343,-789.6923 295.2269,-794.9409 304.3687,-788.8846 304.3687,-788.8846"/>
<text text-anchor="start" x="301.3855" y="-800.5" font-family="Arial" font-size="10.00" fill="#000000">FOREIGN KEY (chain_id) REFERENCES chains(id)</text>
</g>
<!-- public.challenges -->
<g id="node3" class="node">
<title>public.challenges</title>
<polygon fill="#efefef" stroke="transparent" points="398.5,-760.5 398.5,-795.5 647.5,-795.5 647.5,-760.5 398.5,-760.5"/>
<polygon fill="none" stroke="#000000" points="398.5,-760.5 398.5,-795.5 647.5,-795.5 647.5,-760.5 398.5,-760.5"/>
<text text-anchor="start" x="405.3557" y="-773.3" font-family="Arial Bold" font-size="18.00" fill="#000000">public.challenges</text>
<text text-anchor="start" x="543.3905" y="-773.3" font-family="Arial" font-size="14.00" fill="#000000"> </text>
<text text-anchor="start" x="547.2811" y="-773.3" font-family="Arial" font-size="14.00" fill="#666666">[BASE TABLE]</text>
<polygon fill="none" stroke="#000000" points="398.5,-730.5 398.5,-760.5 647.5,-760.5 647.5,-730.5 398.5,-730.5"/>
<text text-anchor="start" x="405.5" y="-741.9" font-family="Arial" font-size="14.00" fill="#000000">chain_id </text>
<text text-anchor="start" x="461.5168" y="-741.9" font-family="Arial" font-size="14.00" fill="#666666">[text]</text>
<polygon fill="none" stroke="#000000" points="398.5,-700.5 398.5,-730.5 647.5,-730.5 647.5,-700.5 398.5,-700.5"/>
<text text-anchor="start" x="405.5" y="-711.9" font-family="Arial" font-size="14.00" fill="#000000">challenge </text>
<text text-anchor="start" x="469.2994" y="-711.9" font-family="Arial" font-size="14.00" fill="#666666">[bytea]</text>
<polygon fill="none" stroke="#000000" points="398.5,-670.5 398.5,-700.5 647.5,-700.5 647.5,-670.5 398.5,-670.5"/>
<text text-anchor="start" x="405.1438" y="-681.9" font-family="Arial" font-size="14.00" fill="#000000">created_at </text>
<text text-anchor="start" x="475.1718" y="-681.9" font-family="Arial" font-size="14.00" fill="#666666">[timestamp with time zone]</text>
<polygon fill="none" stroke="#000000" points="398.5,-640.5 398.5,-670.5 647.5,-670.5 647.5,-640.5 398.5,-640.5"/>
<text text-anchor="start" x="405.5" y="-651.9" font-family="Arial" font-size="14.00" fill="#000000">id </text>
<text text-anchor="start" x="420.2798" y="-651.9" font-family="Arial" font-size="14.00" fill="#666666">[uuid]</text>
<polygon fill="none" stroke="#000000" points="398.5,-610.5 398.5,-640.5 647.5,-640.5 647.5,-610.5 398.5,-610.5"/>
<text text-anchor="start" x="405.5" y="-621.9" font-family="Arial" font-size="14.00" fill="#000000">payment_address </text>
<text text-anchor="start" x="520.6458" y="-621.9" font-family="Arial" font-size="14.00" fill="#666666">[text]</text>
<polygon fill="none" stroke="#000000" points="398.5,-580.5 398.5,-610.5 647.5,-610.5 647.5,-580.5 398.5,-580.5"/>
<text text-anchor="start" x="405.5" y="-591.9" font-family="Arial" font-size="14.00" fill="#000000">pub_key_bytes </text>
<text text-anchor="start" x="503.542" y="-591.9" font-family="Arial" font-size="14.00" fill="#666666">[bytea]</text>
<polygon fill="none" stroke="#000000" points="398.5,-550.5 398.5,-580.5 647.5,-580.5 647.5,-550.5 398.5,-550.5"/>
<text text-anchor="start" x="405.5" y="-561.9" font-family="Arial" font-size="14.00" fill="#000000">pub_key_type </text>
<text text-anchor="start" x="496.542" y="-561.9" font-family="Arial" font-size="14.00" fill="#666666">[text]</text>
<polygon fill="none" stroke="#000000" points="398.5,-520.5 398.5,-550.5 647.5,-550.5 647.5,-520.5 398.5,-520.5"/>
<text text-anchor="start" x="405.5" y="-531.9" font-family="Arial" font-size="14.00" fill="#000000">validator_address </text>
<text text-anchor="start" x="519.859" y="-531.9" font-family="Arial" font-size="14.00" fill="#666666">[text]</text>
</g>
<!-- public.challenges&#45;&gt;public.chains -->
<g id="edge2" class="edge">
<title>public.challenges:chain_id&#45;&gt;public.chains:id</title>
<path fill="none" stroke="#000000" d="M389.4727,-740.4869C345.6804,-689.7218 346.9173,-270.5 396.5,-270.5"/>
<polygon fill="#000000" stroke="#000000" points="389.7575,-740.6451 396.3153,-749.4341 394.1288,-743.0725 398.5,-745.5 398.5,-745.5 398.5,-745.5 394.1288,-743.0725 400.6847,-741.5659 389.7575,-740.6451 389.7575,-740.6451"/>
<text text-anchor="start" x="343.8855" y="-729.5" font-family="Arial" font-size="10.00" fill="#000000">FOREIGN KEY (chain_id) REFERENCES chains(id)</text>
</g>
<!-- public.validators -->
<g id="node4" class="node">
<title>public.validators</title>
<polygon fill="#efefef" stroke="transparent" points="751.5,-745.5 751.5,-780.5 1004.5,-780.5 1004.5,-745.5 751.5,-745.5"/>
<polygon fill="none" stroke="#000000" points="751.5,-745.5 751.5,-780.5 1004.5,-780.5 1004.5,-745.5 751.5,-745.5"/>
<text text-anchor="start" x="764.8647" y="-758.3" font-family="Arial Bold" font-size="18.00" fill="#000000">public.validators</text>
<text text-anchor="start" x="893.8815" y="-758.3" font-family="Arial" font-size="14.00" fill="#000000"> </text>
<text text-anchor="start" x="897.7721" y="-758.3" font-family="Arial" font-size="14.00" fill="#666666">[BASE TABLE]</text>
<polygon fill="none" stroke="#000000" points="751.5,-715.5 751.5,-745.5 1004.5,-745.5 1004.5,-715.5 751.5,-715.5"/>
<text text-anchor="start" x="758.5" y="-726.9" font-family="Arial" font-size="14.00" fill="#000000">address </text>
<text text-anchor="start" x="812.1816" y="-726.9" font-family="Arial" font-size="14.00" fill="#666666">[text]</text>
<polygon fill="none" stroke="#000000" points="751.5,-685.5 751.5,-715.5 1004.5,-715.5 1004.5,-685.5 751.5,-685.5"/>
<text text-anchor="start" x="758.5" y="-696.9" font-family="Arial" font-size="14.00" fill="#000000">chain_id </text>
<text text-anchor="start" x="814.5168" y="-696.9" font-family="Arial" font-size="14.00" fill="#666666">[text]</text>
<polygon fill="none" stroke="#000000" points="751.5,-655.5 751.5,-685.5 1004.5,-685.5 1004.5,-655.5 751.5,-655.5"/>
<text text-anchor="start" x="758.5" y="-666.9" font-family="Arial" font-size="14.00" fill="#000000">created_at </text>
<text text-anchor="start" x="828.528" y="-666.9" font-family="Arial" font-size="14.00" fill="#666666">[timestamp with time zone]</text>
<polygon fill="none" stroke="#000000" points="751.5,-625.5 751.5,-655.5 1004.5,-655.5 1004.5,-625.5 751.5,-625.5"/>
<text text-anchor="start" x="758.5" y="-636.9" font-family="Arial" font-size="14.00" fill="#000000">payment_address </text>
<text text-anchor="start" x="873.6458" y="-636.9" font-family="Arial" font-size="14.00" fill="#666666">[text]</text>
<polygon fill="none" stroke="#000000" points="751.5,-595.5 751.5,-625.5 1004.5,-625.5 1004.5,-595.5 751.5,-595.5"/>
<text text-anchor="start" x="758.5" y="-606.9" font-family="Arial" font-size="14.00" fill="#000000">pub_key_bytes </text>
<text text-anchor="start" x="856.542" y="-606.9" font-family="Arial" font-size="14.00" fill="#666666">[bytea]</text>
<polygon fill="none" stroke="#000000" points="751.5,-565.5 751.5,-595.5 1004.5,-595.5 1004.5,-565.5 751.5,-565.5"/>
<text text-anchor="start" x="758.5" y="-576.9" font-family="Arial" font-size="14.00" fill="#000000">pub_key_type </text>
<text text-anchor="start" x="849.542" y="-576.9" font-family="Arial" font-size="14.00" fill="#666666">[text]</text>
<polygon fill="none" stroke="#000000" points="751.5,-535.5 751.5,-565.5 1004.5,-565.5 1004.5,-535.5 751.5,-535.5"/>
<text text-anchor="start" x="758.1915" y="-546.9" font-family="Arial" font-size="14.00" fill="#000000">updated_at </text>
<text text-anchor="start" x="832.1241" y="-546.9" font-family="Arial" font-size="14.00" fill="#666666">[timestamp with time zone]</text>
</g>
<!-- public.validators&#45;&gt;public.chains -->
<g id="edge3" class="edge">
<title>public.validators:chain_id&#45;&gt;public.chains:id</title>
<path fill="none" stroke="#000000" d="M741.3429,-698.7675C660.0349,-669.1781 744.0627,-270.5 649.5,-270.5"/>
<polygon fill="#000000" stroke="#000000" points="741.6424,-698.8185 750.7433,-704.9359 746.5712,-699.6592 751.5,-700.5 751.5,-700.5 751.5,-700.5 746.5712,-699.6592 752.2567,-696.0641 741.6424,-698.8185 741.6424,-698.8185"/>
<text text-anchor="start" x="696.8855" y="-684.5" font-family="Arial" font-size="10.00" fill="#000000">FOREIGN KEY (chain_id) REFERENCES chains(id)</text>
</g>
</g>
</svg>
