<?xml version="1.0" encoding="UTF-8" standalone="no"?>
<!DOCTYPE svg PUBLIC "-//W3C//DTD SVG 1.1//EN"
 "http://www.w3.org/Graphics/SVG/1.1/DTD/svg11.dtd">
<!-- Generated by graphviz version 2.40.1 (20161225.0304)
 -->
<!-- Title: public.challenges Pages: 1 -->
<svg width="549pt" height="802pt"
 viewBox="0.00 0.00 548.50 802.00" xmlns="http://www.w3.org/2000/svg" xmlns:xlink="http://www.w3.org/1999/xlink">
<g id="graph0" class="graph" transform="scale(1 1) rotate(0) translate(4 798)">
<title>public.challenges</title>
<polygon fill="#ffffff" stroke="transparent" points="-4,4 -4,-798 544.5,-798 544.5,4 -4,4"/>
<!-- public.challenges -->
<g id="node1" class="node">
<title>public.challenges</title>
<polygon fill="#efefef" stroke="transparent" points="246,-712.5 246,-747.5 495,-747.5 495,-712.5 246,-712.5"/>
<polygon fill="none" stroke="#000000" points="246,-712.5 246,-747.5 495,-747.5 495,-712.5 246,-712.5"/>
<text text-anchor="start" x="252.8557" y="-725.3" font-family="Arial Bold" font-size="18.00" fill="#000000">public.challenges</text>
<text text-anchor="start" x="390.8905" y="-725.3" font-family="Arial" font-size="14.00" fill="#000000"> </text>
<text text-anchor="start" x="394.7811" y="-725.3" font-family="Arial" font-size="14.00" fill="#666666">[BASE TABLE]</text>
<polygon fill="none" stroke="#000000" points="246,-682.5 246,-712.5 495,-712.5 495,-682.5 246,-682.5"/>
<text text-anchor="start" x="253" y="-693.9" font-family="Arial" font-size="14.00" fill="#000000">chain_id </text>
<text text-anchor="start" x="309.0168" y="-693.9" font-family="Arial" font-size="14.00" fill="#666666">[text]</text>
<polygon fill="none" stroke="#000000" points="246,-652.5 246,-682.5 495,-682.5 495,-652.5 246,-652.5"/>
<text text-anchor="start" x="253" y="-663.9" font-family="Arial" font-size="14.00" fill="#000000">challenge </text>
<text text-anchor="start" x="316.7994" y="-663.9" font-family="Arial" font-size="14.00" fill="#666666">[bytea]</text>
<polygon fill="none" stroke="#000000" points="246,-622.5 246,-652.5 495,-652.5 495,-622.5 246,-622.5"/>
<text text-anchor="start" x="252.6438" y="-633.9" font-family="Arial" font-size="14.00" fill="#000000">created_at </text>
<text text-anchor="start" x="322.6718" y="-633.9" font-family="Arial" font-size="14.00" fill="#666666">[timestamp with time zone]</text>
<polygon fill="none" stroke="#000000" points="246,-592.5 246,-622.5 495,-622.5 495,-592.5 246,-592.5"/>
<text text-anchor="start" x="253" y="-603.9" font-family="Arial" font-size="14.00" fill="#000000">id </text>
<text text-anchor="start" x="267.7798" y="-603.9" font-family="Arial" font-size="14.00" fill="#666666">[uuid]</text>
<polygon fill="none" stroke="#000000" points="246,-562.5 246,-592.5 495,-592.5 495,-562.5 246,-562.5"/>
<text text-anchor="start" x="253" y="-573.9" font-family="Arial" font-size="14.00" fill="#000000">payment_address </text>
<text text-anchor="start" x="368.1458" y="-573.9" font-family="Arial" font-size="14.00" fill="#666666">[text]</text>
<polygon fill="none" stroke="#000000" points="246,-532.5 246,-562.5 495,-562.5 495,-532.5 246,-532.5"/>
<text text-anchor="start" x="253" y="-543.9" font-family="Arial" font-size="14.00" fill="#000000">pub_key_bytes </text>
<text text-anchor="start" x="351.042" y="-543.9" font-family="Arial" font-size="14.00" fill="#666666">[bytea]</text>
<polygon fill="none" stroke="#000000" points="246,-502.5 246,-532.5 495,-532.5 495,-502.5 246,-502.5"/>
<text text-anchor="start" x="253" y="-513.9" font-family="Arial" font-size="14.00" fill="#000000">pub_key_type </text>
<text text-anchor="start" x="344.042" y="-513.9" font-family="Arial" font-size="14.00" fill="#666666">[text]</text>
<polygon fill="none" stroke="#000000" points="246,-472.5 246,-502.5 495,-502.5 495,-472.5 246,-472.5"/>
<text text-anchor="start" x="253" y="-483.9" font-family="Arial" font-size="14.00" fill="#000000">validator_address </text>
<text text-anchor="start" x="367.359" y="-483.9" font-family="Arial" font-size="14.00" fill="#666666">[text]</text>
<polygon fill="none" stroke="#000000" stroke-width="3" points="244,-471.5 244,-749.5 496,-749.5 496,-471.5 244,-471.5"/>
</g>
<!-- public.chains -->
<g id="node2" class="node">
<title>public.chains</title>
<polygon fill="#efefef" stroke="transparent" points="244,-312.5 244,-347.5 497,-347.5 497,-312.5 244,-312.5"/>
<polygon fill="none" stroke="#000000" points="244,-312.5 244,-347.5 497,-347.5 497,-312.5 244,-312.5"/>
<text text-anchor="start" x="269.8621" y="-325.3" font-family="Arial Bold" font-size="18.00" fill="#000000">public.chains</text>
<text text-anchor="start" x="373.8841" y="-325.3" font-family="Arial" font-size="14.00" fill="#000000"> </text>
<text text-anchor="start" x="377.7747" y="-325.3" font-family="Arial" font-size="14.00" fill="#666666">[BASE TABLE]</text>
<polygon fill="none" stroke="#000000" points="244,-282.5 244,-312.5 497,-312.5 497,-282.5 244,-282.5"/>
<text text-anchor="start" x="251" y="-293.9" font-family="Arial" font-size="14.00" fill="#000000">created_at </text>
<text text-anchor="start" x="321.028" y="-293.9" font-family="Arial" font-size="14.00" fill="#666666">[timestamp with time zone]</text>
<polygon fill="none" stroke="#000000" points="244,-252.5 244,-282.5 497,-282.5 497,-252.5 244,-252.5"/>
<text text-anchor="start" x="251" y="-263.9" font-family="Arial" font-size="14.00" fill="#000000">id </text>
<text text-anchor="start" x="265.7798" y="-263.9" font-family="Arial" font-size="14.00" fill="#666666">[text]</text>
<polygon fill="none" stroke="#000000" points="244,-222.5 244,-252.5 497,-252.5 497,-222.5 244,-222.5"/>
<text text-anchor="start" x="251" y="-233.9" font-family="Arial" font-size="14.00" fill="#000000">mekatek_payment_address </text>
<text text-anchor="start" x="426.8274" y="-233.9" font-family="Arial" font-size="14.00" fill="#666666">[text]</text>
<polygon fill="none" stroke="#000000" points="244,-192.5 244,-222.5 497,-222.5 497,-192.5 244,-192.5"/>
<text text-anchor="start" x="251" y="-203.9" font-family="Arial" font-size="14.00" fill="#000000">network </text>
<text text-anchor="start" x="303.8962" y="-203.9" font-family="Arial" font-size="14.00" fill="#666666">[text]</text>
<polygon fill="none" stroke="#000000" points="244,-162.5 244,-192.5 497,-192.5 497,-162.5 244,-162.5"/>
<text text-anchor="start" x="251" y="-173.9" font-family="Arial" font-size="14.00" fill="#000000">node_uris </text>
<text text-anchor="start" x="316.3534" y="-173.9" font-family="Arial" font-size="14.00" fill="#666666">[text[]]</text>
<polygon fill="none" stroke="#000000" points="244,-132.5 244,-162.5 497,-162.5 497,-132.5 244,-132.5"/>
<text text-anchor="start" x="251" y="-143.9" font-family="Arial" font-size="14.00" fill="#000000">payment_denom </text>
<text text-anchor="start" x="359.1458" y="-143.9" font-family="Arial" font-size="14.00" fill="#666666">[text]</text>
<polygon fill="none" stroke="#000000" points="244,-102.5 244,-132.5 497,-132.5 497,-102.5 244,-102.5"/>
<text text-anchor="start" x="251" y="-113.9" font-family="Arial" font-size="14.00" fill="#000000">retention_time </text>
<text text-anchor="start" x="343.575" y="-113.9" font-family="Arial" font-size="14.00" fill="#666666">[text]</text>
<polygon fill="none" stroke="#000000" points="244,-72.5 244,-102.5 497,-102.5 497,-72.5 244,-72.5"/>
<text text-anchor="start" x="251" y="-83.9" font-family="Arial" font-size="14.00" fill="#000000">timeout </text>
<text text-anchor="start" x="300.7868" y="-83.9" font-family="Arial" font-size="14.00" fill="#666666">[text]</text>
<polygon fill="none" stroke="#000000" points="244,-42.5 244,-72.5 497,-72.5 497,-42.5 244,-42.5"/>
<text text-anchor="start" x="250.6915" y="-53.9" font-family="Arial" font-size="14.00" fill="#000000">updated_at </text>
<text text-anchor="start" x="324.6241" y="-53.9" font-family="Arial" font-size="14.00" fill="#666666">[timestamp with time zone]</text>
</g>
<!-- public.challenges&#45;&gt;public.chains -->
<g id="edge1" class="edge">
<title>public.challenges:chain_id&#45;&gt;public.chains:id</title>
<path fill="none" stroke="#000000" d="M236.0084,-695.8564C150.4262,-666.9872 151.8961,-267.5 244,-267.5"/>
<polygon fill="#000000" stroke="#000000" points="236.1326,-695.8767 245.2695,-701.9403 241.0663,-696.6884 246,-697.5 246,-697.5 246,-697.5 241.0663,-696.6884 246.7305,-693.0597 236.1326,-695.8767 236.1326,-695.8767"/>
<text text-anchor="start" x="6.8855" y="-707.5" font-family="Arial" font-size="10.00" fill="#000000">FOREIGN KEY (chain_id) REFERENCES chains(id)</text>
</g>
</g>
</svg>
