<?xml version="1.0" encoding="UTF-8" standalone="no"?>
<!DOCTYPE svg PUBLIC "-//W3C//DTD SVG 1.1//EN"
 "http://www.w3.org/Graphics/SVG/1.1/DTD/svg11.dtd">
<!-- Generated by graphviz version 2.40.1 (20161225.0304)
 -->
<!-- Title: public.bids Pages: 1 -->
<svg width="656pt" height="982pt"
 viewBox="0.00 0.00 655.50 982.00" xmlns="http://www.w3.org/2000/svg" xmlns:xlink="http://www.w3.org/1999/xlink">
<g id="graph0" class="graph" transform="scale(1 1) rotate(0) translate(4 978)">
<title>public.bids</title>
<polygon fill="#ffffff" stroke="transparent" points="-4,4 -4,-978 651.5,-978 651.5,4 -4,4"/>
<!-- public.bids -->
<g id="node1" class="node">
<title>public.bids</title>
<polygon fill="#efefef" stroke="transparent" points="349,-892.5 349,-927.5 602,-927.5 602,-892.5 349,-892.5"/>
<polygon fill="none" stroke="#000000" points="349,-892.5 349,-927.5 602,-927.5 602,-892.5 349,-892.5"/>
<text text-anchor="start" x="384.3652" y="-905.3" font-family="Arial Bold" font-size="18.00" fill="#000000">public.bids</text>
<text text-anchor="start" x="469.381" y="-905.3" font-family="Arial" font-size="14.00" fill="#000000"> </text>
<text text-anchor="start" x="473.2716" y="-905.3" font-family="Arial" font-size="14.00" fill="#666666">[BASE TABLE]</text>
<polygon fill="none" stroke="#000000" points="349,-862.5 349,-892.5 602,-892.5 602,-862.5 349,-862.5"/>
<text text-anchor="start" x="356" y="-873.9" font-family="Arial" font-size="14.00" fill="#000000">chain_id </text>
<text text-anchor="start" x="412.0168" y="-873.9" font-family="Arial" font-size="14.00" fill="#666666">[text]</text>
<polygon fill="none" stroke="#000000" points="349,-832.5 349,-862.5 602,-862.5 602,-832.5 349,-832.5"/>
<text text-anchor="start" x="356" y="-843.9" font-family="Arial" font-size="14.00" fill="#000000">created_at </text>
<text text-anchor="start" x="426.028" y="-843.9" font-family="Arial" font-size="14.00" fill="#666666">[timestamp with time zone]</text>
<polygon fill="none" stroke="#000000" points="349,-802.5 349,-832.5 602,-832.5 602,-802.5 349,-802.5"/>
<text text-anchor="start" x="356" y="-813.9" font-family="Arial" font-size="14.00" fill="#000000">height </text>
<text text-anchor="start" x="398.0182" y="-813.9" font-family="Arial" font-size="14.00" fill="#666666">[bigint]</text>
<polygon fill="none" stroke="#000000" points="349,-772.5 349,-802.5 602,-802.5 602,-772.5 349,-772.5"/>
<text text-anchor="start" x="356" y="-783.9" font-family="Arial" font-size="14.00" fill="#000000">id </text>
<text text-anchor="start" x="370.7798" y="-783.9" font-family="Arial" font-size="14.00" fill="#666666">[uuid]</text>
<polygon fill="none" stroke="#000000" points="349,-742.5 349,-772.5 602,-772.5 602,-742.5 349,-742.5"/>
<text text-anchor="start" x="356" y="-753.9" font-family="Arial" font-size="14.00" fill="#000000">kind </text>
<text text-anchor="start" x="385.5624" y="-753.9" font-family="Arial" font-size="14.00" fill="#666666">[text]</text>
<polygon fill="none" stroke="#000000" points="349,-712.5 349,-742.5 602,-742.5 602,-712.5 349,-712.5"/>
<text text-anchor="start" x="356" y="-723.9" font-family="Arial" font-size="14.00" fill="#000000">mekatek_payment </text>
<text text-anchor="start" x="474.2538" y="-723.9" font-family="Arial" font-size="14.00" fill="#666666">[bigint]</text>
<polygon fill="none" stroke="#000000" points="349,-682.5 349,-712.5 602,-712.5 602,-682.5 349,-682.5"/>
<text text-anchor="start" x="356" y="-693.9" font-family="Arial" font-size="14.00" fill="#000000">payments </text>
<text text-anchor="start" x="420.5722" y="-693.9" font-family="Arial" font-size="14.00" fill="#666666">[jsonb]</text>
<polygon fill="none" stroke="#000000" points="349,-652.5 349,-682.5 602,-682.5 602,-652.5 349,-652.5"/>
<text text-anchor="start" x="356" y="-663.9" font-family="Arial" font-size="14.00" fill="#000000">priority </text>
<text text-anchor="start" x="401.8808" y="-663.9" font-family="Arial" font-size="14.00" fill="#666666">[bigint]</text>
<polygon fill="none" stroke="#000000" points="349,-622.5 349,-652.5 602,-652.5 602,-622.5 349,-622.5"/>
<text text-anchor="start" x="356" y="-633.9" font-family="Arial" font-size="14.00" fill="#000000">state </text>
<text text-anchor="start" x="390.237" y="-633.9" font-family="Arial" font-size="14.00" fill="#666666">[text]</text>
<polygon fill="none" stroke="#000000" points="349,-592.5 349,-622.5 602,-622.5 602,-592.5 349,-592.5"/>
<text text-anchor="start" x="356" y="-603.9" font-family="Arial" font-size="14.00" fill="#000000">txs </text>
<text text-anchor="start" x="377.7812" y="-603.9" font-family="Arial" font-size="14.00" fill="#666666">[bytea[]]</text>
<polygon fill="none" stroke="#000000" points="349,-562.5 349,-592.5 602,-592.5 602,-562.5 349,-562.5"/>
<text text-anchor="start" x="355.6915" y="-573.9" font-family="Arial" font-size="14.00" fill="#000000">updated_at </text>
<text text-anchor="start" x="429.6241" y="-573.9" font-family="Arial" font-size="14.00" fill="#666666">[timestamp with time zone]</text>
<polygon fill="none" stroke="#000000" points="349,-532.5 349,-562.5 602,-562.5 602,-532.5 349,-532.5"/>
<text text-anchor="start" x="356" y="-543.9" font-family="Arial" font-size="14.00" fill="#000000">validator_payment </text>
<text text-anchor="start" x="474.2496" y="-543.9" font-family="Arial" font-size="14.00" fill="#666666">[bigint]</text>
<polygon fill="none" stroke="#000000" stroke-width="3" points="347,-531.5 347,-929.5 603,-929.5 603,-531.5 347,-531.5"/>
</g>
<!-- public.auctions -->
<g id="node2" class="node">
<title>public.auctions</title>
<polygon fill="#efefef" stroke="transparent" points="350,-372.5 350,-407.5 601,-407.5 601,-372.5 350,-372.5"/>
<polygon fill="none" stroke="#000000" points="350,-372.5 350,-407.5 601,-407.5 601,-372.5 350,-372.5"/>
<text text-anchor="start" x="367.3579" y="-385.3" font-family="Arial Bold" font-size="18.00" fill="#000000">public.auctions</text>
<text text-anchor="start" x="486.3883" y="-385.3" font-family="Arial" font-size="14.00" fill="#000000"> </text>
<text text-anchor="start" x="490.2789" y="-385.3" font-family="Arial" font-size="14.00" fill="#666666">[BASE TABLE]</text>
<polygon fill="none" stroke="#000000" points="350,-342.5 350,-372.5 601,-372.5 601,-342.5 350,-342.5"/>
<text text-anchor="start" x="357" y="-353.9" font-family="Arial" font-size="14.00" fill="#000000">chain_id </text>
<text text-anchor="start" x="413.0168" y="-353.9" font-family="Arial" font-size="14.00" fill="#666666">[text]</text>
<polygon fill="none" stroke="#000000" points="350,-312.5 350,-342.5 601,-342.5 601,-312.5 350,-312.5"/>
<text text-anchor="start" x="357" y="-323.9" font-family="Arial" font-size="14.00" fill="#000000">created_at </text>
<text text-anchor="start" x="427.028" y="-323.9" font-family="Arial" font-size="14.00" fill="#666666">[timestamp with time zone]</text>
<polygon fill="none" stroke="#000000" points="350,-282.5 350,-312.5 601,-312.5 601,-282.5 350,-282.5"/>
<text text-anchor="start" x="356.8675" y="-293.9" font-family="Arial" font-size="14.00" fill="#000000">finished_at </text>
<text text-anchor="start" x="428.4481" y="-293.9" font-family="Arial" font-size="14.00" fill="#666666">[timestamp with time zone]</text>
<polygon fill="none" stroke="#000000" points="350,-252.5 350,-282.5 601,-282.5 601,-252.5 350,-252.5"/>
<text text-anchor="start" x="357" y="-263.9" font-family="Arial" font-size="14.00" fill="#000000">height </text>
<text text-anchor="start" x="399.0182" y="-263.9" font-family="Arial" font-size="14.00" fill="#666666">[bigint]</text>
<polygon fill="none" stroke="#000000" points="350,-222.5 350,-252.5 601,-252.5 601,-222.5 350,-222.5"/>
<text text-anchor="start" x="357" y="-233.9" font-family="Arial" font-size="14.00" fill="#000000">mekatek_payment_address </text>
<text text-anchor="start" x="532.8274" y="-233.9" font-family="Arial" font-size="14.00" fill="#666666">[text]</text>
<polygon fill="none" stroke="#000000" points="350,-192.5 350,-222.5 601,-222.5 601,-192.5 350,-192.5"/>
<text text-anchor="start" x="357" y="-203.9" font-family="Arial" font-size="14.00" fill="#000000">payment_denom </text>
<text text-anchor="start" x="465.1458" y="-203.9" font-family="Arial" font-size="14.00" fill="#666666">[text]</text>
<polygon fill="none" stroke="#000000" points="350,-162.5 350,-192.5 601,-192.5 601,-162.5 350,-162.5"/>
<text text-anchor="start" x="357" y="-173.9" font-family="Arial" font-size="14.00" fill="#000000">registered_power </text>
<text text-anchor="start" x="469.0196" y="-173.9" font-family="Arial" font-size="14.00" fill="#666666">[bigint]</text>
<polygon fill="none" stroke="#000000" points="350,-132.5 350,-162.5 601,-162.5 601,-132.5 350,-132.5"/>
<text text-anchor="start" x="357" y="-143.9" font-family="Arial" font-size="14.00" fill="#000000">total_power </text>
<text text-anchor="start" x="433.2412" y="-143.9" font-family="Arial" font-size="14.00" fill="#666666">[bigint]</text>
<polygon fill="none" stroke="#000000" points="350,-102.5 350,-132.5 601,-132.5 601,-102.5 350,-102.5"/>
<text text-anchor="start" x="357" y="-113.9" font-family="Arial" font-size="14.00" fill="#000000">validator_address </text>
<text text-anchor="start" x="471.359" y="-113.9" font-family="Arial" font-size="14.00" fill="#666666">[text]</text>
<polygon fill="none" stroke="#000000" points="350,-72.5 350,-102.5 601,-102.5 601,-72.5 350,-72.5"/>
<text text-anchor="start" x="357" y="-83.9" font-family="Arial" font-size="14.00" fill="#000000">validator_allocation </text>
<text text-anchor="start" x="480.6914" y="-83.9" font-family="Arial" font-size="14.00" fill="#666666">[numeric]</text>
<polygon fill="none" stroke="#000000" points="350,-42.5 350,-72.5 601,-72.5 601,-42.5 350,-42.5"/>
<text text-anchor="start" x="357" y="-53.9" font-family="Arial" font-size="14.00" fill="#000000">validator_payment_address </text>
<text text-anchor="start" x="532.8232" y="-53.9" font-family="Arial" font-size="14.00" fill="#666666">[text]</text>
</g>
<!-- public.bids&#45;&gt;public.auctions -->
<g id="edge1" class="edge">
<title>public.bids:chain_id&#45;&gt;public.auctions:chain_id</title>
<path fill="none" stroke="#000000" d="M340.0479,-873.0046C291.5013,-822.1802 295.3818,-357.5 350,-357.5"/>
<polygon fill="#000000" stroke="#000000" points="340.0635,-873.0124 346.9806,-881.5214 344.5317,-875.2562 349,-877.5 349,-877.5 349,-877.5 344.5317,-875.2562 351.0194,-873.4786 340.0635,-873.0124 340.0635,-873.0124"/>
<text text-anchor="start" x="7.197" y="-887.5" font-family="Arial" font-size="10.00" fill="#000000">FOREIGN KEY (chain_id, height) REFERENCES auctions(chain_id, height)</text>
</g>
</g>
</svg>
