<?xml version="1.0" encoding="UTF-8" standalone="no"?>
<!DOCTYPE svg PUBLIC "-//W3C//DTD SVG 1.1//EN"
 "http://www.w3.org/Graphics/SVG/1.1/DTD/svg11.dtd">
<!-- Generated by graphviz version 2.40.1 (20161225.0304)
 -->
<!-- Title: public.auctions Pages: 1 -->
<svg width="938pt" height="1409pt"
 viewBox="0.00 0.00 938.00 1409.00" xmlns="http://www.w3.org/2000/svg" xmlns:xlink="http://www.w3.org/1999/xlink">
<g id="graph0" class="graph" transform="scale(1 1) rotate(0) translate(4 1405)">
<title>public.auctions</title>
<polygon fill="#ffffff" stroke="transparent" points="-4,4 -4,-1405 934,-1405 934,4 -4,4"/>
<!-- public.auctions -->
<g id="node1" class="node">
<title>public.auctions</title>
<polygon fill="#efefef" stroke="transparent" points="350,-802.5 350,-837.5 601,-837.5 601,-802.5 350,-802.5"/>
<polygon fill="none" stroke="#000000" points="350,-802.5 350,-837.5 601,-837.5 601,-802.5 350,-802.5"/>
<text text-anchor="start" x="367.3579" y="-815.3" font-family="Arial Bold" font-size="18.00" fill="#000000">public.auctions</text>
<text text-anchor="start" x="486.3883" y="-815.3" font-family="Arial" font-size="14.00" fill="#000000"> </text>
<text text-anchor="start" x="490.2789" y="-815.3" font-family="Arial" font-size="14.00" fill="#666666">[BASE TABLE]</text>
<polygon fill="none" stroke="#000000" points="350,-772.5 350,-802.5 601,-802.5 601,-772.5 350,-772.5"/>
<text text-anchor="start" x="357" y="-783.9" font-family="Arial" font-size="14.00" fill="#000000">chain_id </text>
<text text-anchor="start" x="413.0168" y="-783.9" font-family="Arial" font-size="14.00" fill="#666666">[text]</text>
<polygon fill="none" stroke="#000000" points="350,-742.5 350,-772.5 601,-772.5 601,-742.5 350,-742.5"/>
<text text-anchor="start" x="357" y="-753.9" font-family="Arial" font-size="14.00" fill="#000000">created_at </text>
<text text-anchor="start" x="427.028" y="-753.9" font-family="Arial" font-size="14.00" fill="#666666">[timestamp with time zone]</text>
<polygon fill="none" stroke="#000000" points="350,-712.5 350,-742.5 601,-742.5 601,-712.5 350,-712.5"/>
<text text-anchor="start" x="356.8675" y="-723.9" font-family="Arial" font-size="14.00" fill="#000000">finished_at </text>
<text text-anchor="start" x="428.4481" y="-723.9" font-family="Arial" font-size="14.00" fill="#666666">[timestamp with time zone]</text>
<polygon fill="none" stroke="#000000" points="350,-682.5 350,-712.5 601,-712.5 601,-682.5 350,-682.5"/>
<text text-anchor="start" x="357" y="-693.9" font-family="Arial" font-size="14.00" fill="#000000">height </text>
<text text-anchor="start" x="399.0182" y="-693.9" font-family="Arial" font-size="14.00" fill="#666666">[bigint]</text>
<polygon fill="none" stroke="#000000" points="350,-652.5 350,-682.5 601,-682.5 601,-652.5 350,-652.5"/>
<text text-anchor="start" x="357" y="-663.9" font-family="Arial" font-size="14.00" fill="#000000">mekatek_payment_address </text>
<text text-anchor="start" x="532.8274" y="-663.9" font-family="Arial" font-size="14.00" fill="#666666">[text]</text>
<polygon fill="none" stroke="#000000" points="350,-622.5 350,-652.5 601,-652.5 601,-622.5 350,-622.5"/>
<text text-anchor="start" x="357" y="-633.9" font-family="Arial" font-size="14.00" fill="#000000">payment_denom </text>
<text text-anchor="start" x="465.1458" y="-633.9" font-family="Arial" font-size="14.00" fill="#666666">[text]</text>
<polygon fill="none" stroke="#000000" points="350,-592.5 350,-622.5 601,-622.5 601,-592.5 350,-592.5"/>
<text text-anchor="start" x="357" y="-603.9" font-family="Arial" font-size="14.00" fill="#000000">registered_power </text>
<text text-anchor="start" x="469.0196" y="-603.9" font-family="Arial" font-size="14.00" fill="#666666">[bigint]</text>
<polygon fill="none" stroke="#000000" points="350,-562.5 350,-592.5 601,-592.5 601,-562.5 350,-562.5"/>
<text text-anchor="start" x="357" y="-573.9" font-family="Arial" font-size="14.00" fill="#000000">total_power </text>
<text text-anchor="start" x="433.2412" y="-573.9" font-family="Arial" font-size="14.00" fill="#666666">[bigint]</text>
<polygon fill="none" stroke="#000000" points="350,-532.5 350,-562.5 601,-562.5 601,-532.5 350,-532.5"/>
<text text-anchor="start" x="357" y="-543.9" font-family="Arial" font-size="14.00" fill="#000000">validator_address </text>
<text text-anchor="start" x="471.359" y="-543.9" font-family="Arial" font-size="14.00" fill="#666666">[text]</text>
<polygon fill="none" stroke="#000000" points="350,-502.5 350,-532.5 601,-532.5 601,-502.5 350,-502.5"/>
<text text-anchor="start" x="357" y="-513.9" font-family="Arial" font-size="14.00" fill="#000000">validator_allocation </text>
<text text-anchor="start" x="480.6914" y="-513.9" font-family="Arial" font-size="14.00" fill="#666666">[numeric]</text>
<polygon fill="none" stroke="#000000" points="350,-472.5 350,-502.5 601,-502.5 601,-472.5 350,-472.5"/>
<text text-anchor="start" x="357" y="-483.9" font-family="Arial" font-size="14.00" fill="#000000">validator_payment_address </text>
<text text-anchor="start" x="532.8232" y="-483.9" font-family="Arial" font-size="14.00" fill="#666666">[text]</text>
<polygon fill="none" stroke="#000000" stroke-width="3" points="348,-471.5 348,-839.5 602,-839.5 602,-471.5 348,-471.5"/>
</g>
<!-- public.chains -->
<g id="node2" class="node">
<title>public.chains</title>
<polygon fill="#efefef" stroke="transparent" points="171,-312.5 171,-347.5 424,-347.5 424,-312.5 171,-312.5"/>
<polygon fill="none" stroke="#000000" points="171,-312.5 171,-347.5 424,-347.5 424,-312.5 171,-312.5"/>
<text text-anchor="start" x="196.8621" y="-325.3" font-family="Arial Bold" font-size="18.00" fill="#000000">public.chains</text>
<text text-anchor="start" x="300.8841" y="-325.3" font-family="Arial" font-size="14.00" fill="#000000"> </text>
<text text-anchor="start" x="304.7747" y="-325.3" font-family="Arial" font-size="14.00" fill="#666666">[BASE TABLE]</text>
<polygon fill="none" stroke="#000000" points="171,-282.5 171,-312.5 424,-312.5 424,-282.5 171,-282.5"/>
<text text-anchor="start" x="178" y="-293.9" font-family="Arial" font-size="14.00" fill="#000000">created_at </text>
<text text-anchor="start" x="248.028" y="-293.9" font-family="Arial" font-size="14.00" fill="#666666">[timestamp with time zone]</text>
<polygon fill="none" stroke="#000000" points="171,-252.5 171,-282.5 424,-282.5 424,-252.5 171,-252.5"/>
<text text-anchor="start" x="178" y="-263.9" font-family="Arial" font-size="14.00" fill="#000000">id </text>
<text text-anchor="start" x="192.7798" y="-263.9" font-family="Arial" font-size="14.00" fill="#666666">[text]</text>
<polygon fill="none" stroke="#000000" points="171,-222.5 171,-252.5 424,-252.5 424,-222.5 171,-222.5"/>
<text text-anchor="start" x="178" y="-233.9" font-family="Arial" font-size="14.00" fill="#000000">mekatek_payment_address </text>
<text text-anchor="start" x="353.8274" y="-233.9" font-family="Arial" font-size="14.00" fill="#666666">[text]</text>
<polygon fill="none" stroke="#000000" points="171,-192.5 171,-222.5 424,-222.5 424,-192.5 171,-192.5"/>
<text text-anchor="start" x="178" y="-203.9" font-family="Arial" font-size="14.00" fill="#000000">network </text>
<text text-anchor="start" x="230.8962" y="-203.9" font-family="Arial" font-size="14.00" fill="#666666">[text]</text>
<polygon fill="none" stroke="#000000" points="171,-162.5 171,-192.5 424,-192.5 424,-162.5 171,-162.5"/>
<text text-anchor="start" x="178" y="-173.9" font-family="Arial" font-size="14.00" fill="#000000">node_uris </text>
<text text-anchor="start" x="243.3534" y="-173.9" font-family="Arial" font-size="14.00" fill="#666666">[text[]]</text>
<polygon fill="none" stroke="#000000" points="171,-132.5 171,-162.5 424,-162.5 424,-132.5 171,-132.5"/>
<text text-anchor="start" x="178" y="-143.9" font-family="Arial" font-size="14.00" fill="#000000">payment_denom </text>
<text text-anchor="start" x="286.1458" y="-143.9" font-family="Arial" font-size="14.00" fill="#666666">[text]</text>
<polygon fill="none" stroke="#000000" points="171,-102.5 171,-132.5 424,-132.5 424,-102.5 171,-102.5"/>
<text text-anchor="start" x="178" y="-113.9" font-family="Arial" font-size="14.00" fill="#000000">retention_time </text>
<text text-anchor="start" x="270.575" y="-113.9" font-family="Arial" font-size="14.00" fill="#666666">[text]</text>
<polygon fill="none" stroke="#000000" points="171,-72.5 171,-102.5 424,-102.5 424,-72.5 171,-72.5"/>
<text text-anchor="start" x="178" y="-83.9" font-family="Arial" font-size="14.00" fill="#000000">timeout </text>
<text text-anchor="start" x="227.7868" y="-83.9" font-family="Arial" font-size="14.00" fill="#666666">[text]</text>
<polygon fill="none" stroke="#000000" points="171,-42.5 171,-72.5 424,-72.5 424,-42.5 171,-42.5"/>
<text text-anchor="start" x="177.6915" y="-53.9" font-family="Arial" font-size="14.00" fill="#000000">updated_at </text>
<text text-anchor="start" x="251.6241" y="-53.9" font-family="Arial" font-size="14.00" fill="#666666">[timestamp with time zone]</text>
</g>
<!-- public.auctions&#45;&gt;public.chains -->
<g id="edge1" class="edge">
<title>public.auctions:chain_id&#45;&gt;public.chains:id</title>
<path fill="none" stroke="#000000" d="M339.997,-787.192C193.0156,-777.8874 266.8523,-559.9151 350,-427 369.397,-395.993 404.603,-422.007 424,-391 453.1101,-344.4662 478.8889,-267.5 424,-267.5"/>
<polygon fill="#000000" stroke="#000000" points="340.0047,-787.1921 349.8615,-791.9979 345.0024,-787.3461 350,-787.5 350,-787.5 350,-787.5 345.0024,-787.3461 350.1385,-783.0021 340.0047,-787.1921 340.0047,-787.1921"/>
<text text-anchor="start" x="110.8855" y="-797.5" font-family="Arial" font-size="10.00" fill="#000000">FOREIGN KEY (chain_id) REFERENCES chains(id)</text>
</g>
<!-- public.validators -->
<g id="node4" class="node">
<title>public.validators</title>
<polygon fill="#efefef" stroke="transparent" points="528,-282.5 528,-317.5 781,-317.5 781,-282.5 528,-282.5"/>
<polygon fill="none" stroke="#000000" points="528,-282.5 528,-317.5 781,-317.5 781,-282.5 528,-282.5"/>
<text text-anchor="start" x="541.3647" y="-295.3" font-family="Arial Bold" font-size="18.00" fill="#000000">public.validators</text>
<text text-anchor="start" x="670.3815" y="-295.3" font-family="Arial" font-size="14.00" fill="#000000"> </text>
<text text-anchor="start" x="674.2721" y="-295.3" font-family="Arial" font-size="14.00" fill="#666666">[BASE TABLE]</text>
<polygon fill="none" stroke="#000000" points="528,-252.5 528,-282.5 781,-282.5 781,-252.5 528,-252.5"/>
<text text-anchor="start" x="535" y="-263.9" font-family="Arial" font-size="14.00" fill="#000000">address </text>
<text text-anchor="start" x="588.6816" y="-263.9" font-family="Arial" font-size="14.00" fill="#666666">[text]</text>
<polygon fill="none" stroke="#000000" points="528,-222.5 528,-252.5 781,-252.5 781,-222.5 528,-222.5"/>
<text text-anchor="start" x="535" y="-233.9" font-family="Arial" font-size="14.00" fill="#000000">chain_id </text>
<text text-anchor="start" x="591.0168" y="-233.9" font-family="Arial" font-size="14.00" fill="#666666">[text]</text>
<polygon fill="none" stroke="#000000" points="528,-192.5 528,-222.5 781,-222.5 781,-192.5 528,-192.5"/>
<text text-anchor="start" x="535" y="-203.9" font-family="Arial" font-size="14.00" fill="#000000">created_at </text>
<text text-anchor="start" x="605.028" y="-203.9" font-family="Arial" font-size="14.00" fill="#666666">[timestamp with time zone]</text>
<polygon fill="none" stroke="#000000" points="528,-162.5 528,-192.5 781,-192.5 781,-162.5 528,-162.5"/>
<text text-anchor="start" x="535" y="-173.9" font-family="Arial" font-size="14.00" fill="#000000">payment_address </text>
<text text-anchor="start" x="650.1458" y="-173.9" font-family="Arial" font-size="14.00" fill="#666666">[text]</text>
<polygon fill="none" stroke="#000000" points="528,-132.5 528,-162.5 781,-162.5 781,-132.5 528,-132.5"/>
<text text-anchor="start" x="535" y="-143.9" font-family="Arial" font-size="14.00" fill="#000000">pub_key_bytes </text>
<text text-anchor="start" x="633.042" y="-143.9" font-family="Arial" font-size="14.00" fill="#666666">[bytea]</text>
<polygon fill="none" stroke="#000000" points="528,-102.5 528,-132.5 781,-132.5 781,-102.5 528,-102.5"/>
<text text-anchor="start" x="535" y="-113.9" font-family="Arial" font-size="14.00" fill="#000000">pub_key_type </text>
<text text-anchor="start" x="626.042" y="-113.9" font-family="Arial" font-size="14.00" fill="#666666">[text]</text>
<polygon fill="none" stroke="#000000" points="528,-72.5 528,-102.5 781,-102.5 781,-72.5 528,-72.5"/>
<text text-anchor="start" x="534.6915" y="-83.9" font-family="Arial" font-size="14.00" fill="#000000">updated_at </text>
<text text-anchor="start" x="608.6241" y="-83.9" font-family="Arial" font-size="14.00" fill="#666666">[timestamp with time zone]</text>
</g>
<!-- public.auctions&#45;&gt;public.validators -->
<g id="edge3" class="edge">
<title>public.auctions:validator_address&#45;&gt;public.validators:address</title>
<path fill="none" stroke="#000000" d="M611.0638,-546.4715C650.1304,-537.5497 621.2049,-472.506 601,-427 583.2506,-387.0244 545.7494,-400.9756 528,-361 511.1366,-323.0199 486.4444,-267.5 528,-267.5"/>
<polygon fill="#000000" stroke="#000000" points="610.9482,-546.4832 600.5425,-543.0233 605.9741,-546.9916 601,-547.5 601,-547.5 601,-547.5 605.9741,-546.9916 601.4575,-551.9767 610.9482,-546.4832 610.9482,-546.4832"/>
<text text-anchor="start" x="608.2125" y="-557.5" font-family="Arial" font-size="10.00" fill="#000000">FOREIGN KEY (validator_address) REFERENCES validators(address)</text>
</g>
<!-- public.bids -->
<g id="node3" class="node">
<title>public.bids</title>
<polygon fill="#efefef" stroke="transparent" points="349,-1322.5 349,-1357.5 602,-1357.5 602,-1322.5 349,-1322.5"/>
<polygon fill="none" stroke="#000000" points="349,-1322.5 349,-1357.5 602,-1357.5 602,-1322.5 349,-1322.5"/>
<text text-anchor="start" x="384.3652" y="-1335.3" font-family="Arial Bold" font-size="18.00" fill="#000000">public.bids</text>
<text text-anchor="start" x="469.381" y="-1335.3" font-family="Arial" font-size="14.00" fill="#000000"> </text>
<text text-anchor="start" x="473.2716" y="-1335.3" font-family="Arial" font-size="14.00" fill="#666666">[BASE TABLE]</text>
<polygon fill="none" stroke="#000000" points="349,-1292.5 349,-1322.5 602,-1322.5 602,-1292.5 349,-1292.5"/>
<text text-anchor="start" x="356" y="-1303.9" font-family="Arial" font-size="14.00" fill="#000000">chain_id </text>
<text text-anchor="start" x="412.0168" y="-1303.9" font-family="Arial" font-size="14.00" fill="#666666">[text]</text>
<polygon fill="none" stroke="#000000" points="349,-1262.5 349,-1292.5 602,-1292.5 602,-1262.5 349,-1262.5"/>
<text text-anchor="start" x="356" y="-1273.9" font-family="Arial" font-size="14.00" fill="#000000">created_at </text>
<text text-anchor="start" x="426.028" y="-1273.9" font-family="Arial" font-size="14.00" fill="#666666">[timestamp with time zone]</text>
<polygon fill="none" stroke="#000000" points="349,-1232.5 349,-1262.5 602,-1262.5 602,-1232.5 349,-1232.5"/>
<text text-anchor="start" x="356" y="-1243.9" font-family="Arial" font-size="14.00" fill="#000000">height </text>
<text text-anchor="start" x="398.0182" y="-1243.9" font-family="Arial" font-size="14.00" fill="#666666">[bigint]</text>
<polygon fill="none" stroke="#000000" points="349,-1202.5 349,-1232.5 602,-1232.5 602,-1202.5 349,-1202.5"/>
<text text-anchor="start" x="356" y="-1213.9" font-family="Arial" font-size="14.00" fill="#000000">id </text>
<text text-anchor="start" x="370.7798" y="-1213.9" font-family="Arial" font-size="14.00" fill="#666666">[uuid]</text>
<polygon fill="none" stroke="#000000" points="349,-1172.5 349,-1202.5 602,-1202.5 602,-1172.5 349,-1172.5"/>
<text text-anchor="start" x="356" y="-1183.9" font-family="Arial" font-size="14.00" fill="#000000">kind </text>
<text text-anchor="start" x="385.5624" y="-1183.9" font-family="Arial" font-size="14.00" fill="#666666">[text]</text>
<polygon fill="none" stroke="#000000" points="349,-1142.5 349,-1172.5 602,-1172.5 602,-1142.5 349,-1142.5"/>
<text text-anchor="start" x="356" y="-1153.9" font-family="Arial" font-size="14.00" fill="#000000">mekatek_payment </text>
<text text-anchor="start" x="474.2538" y="-1153.9" font-family="Arial" font-size="14.00" fill="#666666">[bigint]</text>
<polygon fill="none" stroke="#000000" points="349,-1112.5 349,-1142.5 602,-1142.5 602,-1112.5 349,-1112.5"/>
<text text-anchor="start" x="356" y="-1123.9" font-family="Arial" font-size="14.00" fill="#000000">payments </text>
<text text-anchor="start" x="420.5722" y="-1123.9" font-family="Arial" font-size="14.00" fill="#666666">[jsonb]</text>
<polygon fill="none" stroke="#000000" points="349,-1082.5 349,-1112.5 602,-1112.5 602,-1082.5 349,-1082.5"/>
<text text-anchor="start" x="356" y="-1093.9" font-family="Arial" font-size="14.00" fill="#000000">priority </text>
<text text-anchor="start" x="401.8808" y="-1093.9" font-family="Arial" font-size="14.00" fill="#666666">[bigint]</text>
<polygon fill="none" stroke="#000000" points="349,-1052.5 349,-1082.5 602,-1082.5 602,-1052.5 349,-1052.5"/>
<text text-anchor="start" x="356" y="-1063.9" font-family="Arial" font-size="14.00" fill="#000000">state </text>
<text text-anchor="start" x="390.237" y="-1063.9" font-family="Arial" font-size="14.00" fill="#666666">[text]</text>
<polygon fill="none" stroke="#000000" points="349,-1022.5 349,-1052.5 602,-1052.5 602,-1022.5 349,-1022.5"/>
<text text-anchor="start" x="356" y="-1033.9" font-family="Arial" font-size="14.00" fill="#000000">txs </text>
<text text-anchor="start" x="377.7812" y="-1033.9" font-family="Arial" font-size="14.00" fill="#666666">[bytea[]]</text>
<polygon fill="none" stroke="#000000" points="349,-992.5 349,-1022.5 602,-1022.5 602,-992.5 349,-992.5"/>
<text text-anchor="start" x="355.6915" y="-1003.9" font-family="Arial" font-size="14.00" fill="#000000">updated_at </text>
<text text-anchor="start" x="429.6241" y="-1003.9" font-family="Arial" font-size="14.00" fill="#666666">[timestamp with time zone]</text>
<polygon fill="none" stroke="#000000" points="349,-962.5 349,-992.5 602,-992.5 602,-962.5 349,-962.5"/>
<text text-anchor="start" x="356" y="-973.9" font-family="Arial" font-size="14.00" fill="#000000">validator_payment </text>
<text text-anchor="start" x="474.2496" y="-973.9" font-family="Arial" font-size="14.00" fill="#666666">[bigint]</text>
</g>
<!-- public.bids&#45;&gt;public.auctions -->
<g id="edge2" class="edge">
<title>public.bids:chain_id&#45;&gt;public.auctions:chain_id</title>
<path fill="none" stroke="#000000" d="M338.9931,-1307.1685C117.9671,-1292.3772 122.2739,-787.5 350,-787.5"/>
<polygon fill="#000000" stroke="#000000" points="339.0055,-1307.1688 348.851,-1311.9975 344.0027,-1307.3344 349,-1307.5 349,-1307.5 349,-1307.5 344.0027,-1307.3344 349.149,-1303.0025 339.0055,-1307.1688 339.0055,-1307.1688"/>
<text text-anchor="start" x="7.197" y="-1317.5" font-family="Arial" font-size="10.00" fill="#000000">FOREIGN KEY (chain_id, height) REFERENCES auctions(chain_id, height)</text>
</g>
</g>
</svg>
