<?xml version="1.0" encoding="UTF-8" standalone="no"?>
<!DOCTYPE svg PUBLIC "-//W3C//DTD SVG 1.1//EN"
 "http://www.w3.org/Graphics/SVG/1.1/DTD/svg11.dtd">
<!-- Generated by graphviz version 2.40.1 (20161225.0304)
 -->
<!-- Title: zenith&#45;dev Pages: 1 -->
<svg width="1051pt" height="1800pt"
 viewBox="0.00 0.00 1051.00 1800.00" xmlns="http://www.w3.org/2000/svg" xmlns:xlink="http://www.w3.org/1999/xlink">
<g id="graph0" class="graph" transform="scale(1 1) rotate(0) translate(4 1796)">
<title>zenith&#45;dev</title>
<polygon fill="#ffffff" stroke="transparent" points="-4,4 -4,-1796 1047,-1796 1047,4 -4,4"/>
<!-- public.auctions -->
<g id="node1" class="node">
<title>public.auctions</title>
<polygon fill="#efefef" stroke="transparent" points="350,-1196.5 350,-1231.5 601,-1231.5 601,-1196.5 350,-1196.5"/>
<polygon fill="none" stroke="#000000" points="350,-1196.5 350,-1231.5 601,-1231.5 601,-1196.5 350,-1196.5"/>
<text text-anchor="start" x="367.3579" y="-1209.3" font-family="Arial Bold" font-size="18.00" fill="#000000">public.auctions</text>
<text text-anchor="start" x="486.3883" y="-1209.3" font-family="Arial" font-size="14.00" fill="#000000"> </text>
<text text-anchor="start" x="490.2789" y="-1209.3" font-family="Arial" font-size="14.00" fill="#666666">[BASE TABLE]</text>
<polygon fill="none" stroke="#000000" points="350,-1166.5 350,-1196.5 601,-1196.5 601,-1166.5 350,-1166.5"/>
<text text-anchor="start" x="357" y="-1177.9" font-family="Arial" font-size="14.00" fill="#000000">chain_id </text>
<text text-anchor="start" x="413.0168" y="-1177.9" font-family="Arial" font-size="14.00" fill="#666666">[text]</text>
<polygon fill="none" stroke="#000000" points="350,-1136.5 350,-1166.5 601,-1166.5 601,-1136.5 350,-1136.5"/>
<text text-anchor="start" x="357" y="-1147.9" font-family="Arial" font-size="14.00" fill="#000000">created_at </text>
<text text-anchor="start" x="427.028" y="-1147.9" font-family="Arial" font-size="14.00" fill="#666666">[timestamp with time zone]</text>
<polygon fill="none" stroke="#000000" points="350,-1106.5 350,-1136.5 601,-1136.5 601,-1106.5 350,-1106.5"/>
<text text-anchor="start" x="356.8675" y="-1117.9" font-family="Arial" font-size="14.00" fill="#000000">finished_at </text>
<text text-anchor="start" x="428.4481" y="-1117.9" font-family="Arial" font-size="14.00" fill="#666666">[timestamp with time zone]</text>
<polygon fill="none" stroke="#000000" points="350,-1076.5 350,-1106.5 601,-1106.5 601,-1076.5 350,-1076.5"/>
<text text-anchor="start" x="357" y="-1087.9" font-family="Arial" font-size="14.00" fill="#000000">height </text>
<text text-anchor="start" x="399.0182" y="-1087.9" font-family="Arial" font-size="14.00" fill="#666666">[bigint]</text>
<polygon fill="none" stroke="#000000" points="350,-1046.5 350,-1076.5 601,-1076.5 601,-1046.5 350,-1046.5"/>
<text text-anchor="start" x="357" y="-1057.9" font-family="Arial" font-size="14.00" fill="#000000">mekatek_payment_address </text>
<text text-anchor="start" x="532.8274" y="-1057.9" font-family="Arial" font-size="14.00" fill="#666666">[text]</text>
<polygon fill="none" stroke="#000000" points="350,-1016.5 350,-1046.5 601,-1046.5 601,-1016.5 350,-1016.5"/>
<text text-anchor="start" x="357" y="-1027.9" font-family="Arial" font-size="14.00" fill="#000000">payment_denom </text>
<text text-anchor="start" x="465.1458" y="-1027.9" font-family="Arial" font-size="14.00" fill="#666666">[text]</text>
<polygon fill="none" stroke="#000000" points="350,-986.5 350,-1016.5 601,-1016.5 601,-986.5 350,-986.5"/>
<text text-anchor="start" x="357" y="-997.9" font-family="Arial" font-size="14.00" fill="#000000">registered_power </text>
<text text-anchor="start" x="469.0196" y="-997.9" font-family="Arial" font-size="14.00" fill="#666666">[bigint]</text>
<polygon fill="none" stroke="#000000" points="350,-956.5 350,-986.5 601,-986.5 601,-956.5 350,-956.5"/>
<text text-anchor="start" x="357" y="-967.9" font-family="Arial" font-size="14.00" fill="#000000">total_power </text>
<text text-anchor="start" x="433.2412" y="-967.9" font-family="Arial" font-size="14.00" fill="#666666">[bigint]</text>
<polygon fill="none" stroke="#000000" points="350,-926.5 350,-956.5 601,-956.5 601,-926.5 350,-926.5"/>
<text text-anchor="start" x="357" y="-937.9" font-family="Arial" font-size="14.00" fill="#000000">validator_address </text>
<text text-anchor="start" x="471.359" y="-937.9" font-family="Arial" font-size="14.00" fill="#666666">[text]</text>
<polygon fill="none" stroke="#000000" points="350,-896.5 350,-926.5 601,-926.5 601,-896.5 350,-896.5"/>
<text text-anchor="start" x="357" y="-907.9" font-family="Arial" font-size="14.00" fill="#000000">validator_allocation </text>
<text text-anchor="start" x="480.6914" y="-907.9" font-family="Arial" font-size="14.00" fill="#666666">[numeric]</text>
<polygon fill="none" stroke="#000000" points="350,-866.5 350,-896.5 601,-896.5 601,-866.5 350,-866.5"/>
<text text-anchor="start" x="357" y="-877.9" font-family="Arial" font-size="14.00" fill="#000000">validator_payment_address </text>
<text text-anchor="start" x="532.8232" y="-877.9" font-family="Arial" font-size="14.00" fill="#666666">[text]</text>
</g>
<!-- public.chains -->
<g id="node3" class="node">
<title>public.chains</title>
<polygon fill="#efefef" stroke="transparent" points="250,-312.5 250,-347.5 503,-347.5 503,-312.5 250,-312.5"/>
<polygon fill="none" stroke="#000000" points="250,-312.5 250,-347.5 503,-347.5 503,-312.5 250,-312.5"/>
<text text-anchor="start" x="275.8621" y="-325.3" font-family="Arial Bold" font-size="18.00" fill="#000000">public.chains</text>
<text text-anchor="start" x="379.8841" y="-325.3" font-family="Arial" font-size="14.00" fill="#000000"> </text>
<text text-anchor="start" x="383.7747" y="-325.3" font-family="Arial" font-size="14.00" fill="#666666">[BASE TABLE]</text>
<polygon fill="none" stroke="#000000" points="250,-282.5 250,-312.5 503,-312.5 503,-282.5 250,-282.5"/>
<text text-anchor="start" x="257" y="-293.9" font-family="Arial" font-size="14.00" fill="#000000">created_at </text>
<text text-anchor="start" x="327.028" y="-293.9" font-family="Arial" font-size="14.00" fill="#666666">[timestamp with time zone]</text>
<polygon fill="none" stroke="#000000" points="250,-252.5 250,-282.5 503,-282.5 503,-252.5 250,-252.5"/>
<text text-anchor="start" x="257" y="-263.9" font-family="Arial" font-size="14.00" fill="#000000">id </text>
<text text-anchor="start" x="271.7798" y="-263.9" font-family="Arial" font-size="14.00" fill="#666666">[text]</text>
<polygon fill="none" stroke="#000000" points="250,-222.5 250,-252.5 503,-252.5 503,-222.5 250,-222.5"/>
<text text-anchor="start" x="257" y="-233.9" font-family="Arial" font-size="14.00" fill="#000000">mekatek_payment_address </text>
<text text-anchor="start" x="432.8274" y="-233.9" font-family="Arial" font-size="14.00" fill="#666666">[text]</text>
<polygon fill="none" stroke="#000000" points="250,-192.5 250,-222.5 503,-222.5 503,-192.5 250,-192.5"/>
<text text-anchor="start" x="257" y="-203.9" font-family="Arial" font-size="14.00" fill="#000000">network </text>
<text text-anchor="start" x="309.8962" y="-203.9" font-family="Arial" font-size="14.00" fill="#666666">[text]</text>
<polygon fill="none" stroke="#000000" points="250,-162.5 250,-192.5 503,-192.5 503,-162.5 250,-162.5"/>
<text text-anchor="start" x="257" y="-173.9" font-family="Arial" font-size="14.00" fill="#000000">node_uris </text>
<text text-anchor="start" x="322.3534" y="-173.9" font-family="Arial" font-size="14.00" fill="#666666">[text[]]</text>
<polygon fill="none" stroke="#000000" points="250,-132.5 250,-162.5 503,-162.5 503,-132.5 250,-132.5"/>
<text text-anchor="start" x="257" y="-143.9" font-family="Arial" font-size="14.00" fill="#000000">payment_denom </text>
<text text-anchor="start" x="365.1458" y="-143.9" font-family="Arial" font-size="14.00" fill="#666666">[text]</text>
<polygon fill="none" stroke="#000000" points="250,-102.5 250,-132.5 503,-132.5 503,-102.5 250,-102.5"/>
<text text-anchor="start" x="257" y="-113.9" font-family="Arial" font-size="14.00" fill="#000000">retention_time </text>
<text text-anchor="start" x="349.575" y="-113.9" font-family="Arial" font-size="14.00" fill="#666666">[text]</text>
<polygon fill="none" stroke="#000000" points="250,-72.5 250,-102.5 503,-102.5 503,-72.5 250,-72.5"/>
<text text-anchor="start" x="257" y="-83.9" font-family="Arial" font-size="14.00" fill="#000000">timeout </text>
<text text-anchor="start" x="306.7868" y="-83.9" font-family="Arial" font-size="14.00" fill="#666666">[text]</text>
<polygon fill="none" stroke="#000000" points="250,-42.5 250,-72.5 503,-72.5 503,-42.5 250,-42.5"/>
<text text-anchor="start" x="256.6915" y="-53.9" font-family="Arial" font-size="14.00" fill="#000000">updated_at </text>
<text text-anchor="start" x="330.6241" y="-53.9" font-family="Arial" font-size="14.00" fill="#666666">[timestamp with time zone]</text>
</g>
<!-- public.auctions&#45;&gt;public.chains -->
<g id="edge1" class="edge">
<title>public.auctions:chain_id&#45;&gt;public.chains:id</title>
<path fill="none" stroke="#000000" d="M339.7435,-1181.2007C197.4072,-1172.5564 333.052,-978.3927 350,-824 351.7885,-807.7076 355.3379,-804.1727 358,-788 371.1055,-708.3824 346.5458,-489.9689 397,-427 428.1108,-388.1725 474.0225,-431.4445 503,-391 534.9682,-346.3813 557.8889,-267.5 503,-267.5"/>
<polygon fill="#000000" stroke="#000000" points="340.0043,-1181.2082 349.8687,-1185.9981 345.0021,-1181.3541 350,-1181.5 350,-1181.5 350,-1181.5 345.0021,-1181.3541 350.1313,-1177.0019 340.0043,-1181.2082 340.0043,-1181.2082"/>
<text text-anchor="start" x="110.8855" y="-1191.5" font-family="Arial" font-size="10.00" fill="#000000">FOREIGN KEY (chain_id) REFERENCES chains(id)</text>
</g>
<!-- public.validators -->
<g id="node6" class="node">
<title>public.validators</title>
<polygon fill="#efefef" stroke="transparent" points="449,-694.5 449,-729.5 702,-729.5 702,-694.5 449,-694.5"/>
<polygon fill="none" stroke="#000000" points="449,-694.5 449,-729.5 702,-729.5 702,-694.5 449,-694.5"/>
<text text-anchor="start" x="462.3647" y="-707.3" font-family="Arial Bold" font-size="18.00" fill="#000000">public.validators</text>
<text text-anchor="start" x="591.3815" y="-707.3" font-family="Arial" font-size="14.00" fill="#000000"> </text>
<text text-anchor="start" x="595.2721" y="-707.3" font-family="Arial" font-size="14.00" fill="#666666">[BASE TABLE]</text>
<polygon fill="none" stroke="#000000" points="449,-664.5 449,-694.5 702,-694.5 702,-664.5 449,-664.5"/>
<text text-anchor="start" x="456" y="-675.9" font-family="Arial" font-size="14.00" fill="#000000">address </text>
<text text-anchor="start" x="509.6816" y="-675.9" font-family="Arial" font-size="14.00" fill="#666666">[text]</text>
<polygon fill="none" stroke="#000000" points="449,-634.5 449,-664.5 702,-664.5 702,-634.5 449,-634.5"/>
<text text-anchor="start" x="456" y="-645.9" font-family="Arial" font-size="14.00" fill="#000000">chain_id </text>
<text text-anchor="start" x="512.0168" y="-645.9" font-family="Arial" font-size="14.00" fill="#666666">[text]</text>
<polygon fill="none" stroke="#000000" points="449,-604.5 449,-634.5 702,-634.5 702,-604.5 449,-604.5"/>
<text text-anchor="start" x="456" y="-615.9" font-family="Arial" font-size="14.00" fill="#000000">created_at </text>
<text text-anchor="start" x="526.028" y="-615.9" font-family="Arial" font-size="14.00" fill="#666666">[timestamp with time zone]</text>
<polygon fill="none" stroke="#000000" points="449,-574.5 449,-604.5 702,-604.5 702,-574.5 449,-574.5"/>
<text text-anchor="start" x="456" y="-585.9" font-family="Arial" font-size="14.00" fill="#000000">payment_address </text>
<text text-anchor="start" x="571.1458" y="-585.9" font-family="Arial" font-size="14.00" fill="#666666">[text]</text>
<polygon fill="none" stroke="#000000" points="449,-544.5 449,-574.5 702,-574.5 702,-544.5 449,-544.5"/>
<text text-anchor="start" x="456" y="-555.9" font-family="Arial" font-size="14.00" fill="#000000">pub_key_bytes </text>
<text text-anchor="start" x="554.042" y="-555.9" font-family="Arial" font-size="14.00" fill="#666666">[bytea]</text>
<polygon fill="none" stroke="#000000" points="449,-514.5 449,-544.5 702,-544.5 702,-514.5 449,-514.5"/>
<text text-anchor="start" x="456" y="-525.9" font-family="Arial" font-size="14.00" fill="#000000">pub_key_type </text>
<text text-anchor="start" x="547.042" y="-525.9" font-family="Arial" font-size="14.00" fill="#666666">[text]</text>
<polygon fill="none" stroke="#000000" points="449,-484.5 449,-514.5 702,-514.5 702,-484.5 449,-484.5"/>
<text text-anchor="start" x="455.6915" y="-495.9" font-family="Arial" font-size="14.00" fill="#000000">updated_at </text>
<text text-anchor="start" x="529.6241" y="-495.9" font-family="Arial" font-size="14.00" fill="#666666">[timestamp with time zone]</text>
</g>
<!-- public.auctions&#45;&gt;public.validators -->
<g id="edge2" class="edge">
<title>public.auctions:validator_address&#45;&gt;public.validators:address</title>
<path fill="none" stroke="#000000" d="M611.4322,-940.3029C649.9485,-930.5318 629.2299,-863.2485 601,-824 559.3924,-766.1524 490.6076,-830.8476 449,-773 424.7353,-739.2644 407.4444,-679.5 449,-679.5"/>
<polygon fill="#000000" stroke="#000000" points="610.9348,-940.3599 600.487,-937.0293 605.9674,-940.93 601,-941.5 601,-941.5 601,-941.5 605.9674,-940.93 601.513,-945.9707 610.9348,-940.3599 610.9348,-940.3599"/>
<text text-anchor="start" x="608.2125" y="-951.5" font-family="Arial" font-size="10.00" fill="#000000">FOREIGN KEY (validator_address) REFERENCES validators(address)</text>
</g>
<!-- public.bids -->
<g id="node2" class="node">
<title>public.bids</title>
<polygon fill="#efefef" stroke="transparent" points="349,-1713.5 349,-1748.5 602,-1748.5 602,-1713.5 349,-1713.5"/>
<polygon fill="none" stroke="#000000" points="349,-1713.5 349,-1748.5 602,-1748.5 602,-1713.5 349,-1713.5"/>
<text text-anchor="start" x="384.3652" y="-1726.3" font-family="Arial Bold" font-size="18.00" fill="#000000">public.bids</text>
<text text-anchor="start" x="469.381" y="-1726.3" font-family="Arial" font-size="14.00" fill="#000000"> </text>
<text text-anchor="start" x="473.2716" y="-1726.3" font-family="Arial" font-size="14.00" fill="#666666">[BASE TABLE]</text>
<polygon fill="none" stroke="#000000" points="349,-1683.5 349,-1713.5 602,-1713.5 602,-1683.5 349,-1683.5"/>
<text text-anchor="start" x="356" y="-1694.9" font-family="Arial" font-size="14.00" fill="#000000">chain_id </text>
<text text-anchor="start" x="412.0168" y="-1694.9" font-family="Arial" font-size="14.00" fill="#666666">[text]</text>
<polygon fill="none" stroke="#000000" points="349,-1653.5 349,-1683.5 602,-1683.5 602,-1653.5 349,-1653.5"/>
<text text-anchor="start" x="356" y="-1664.9" font-family="Arial" font-size="14.00" fill="#000000">created_at </text>
<text text-anchor="start" x="426.028" y="-1664.9" font-family="Arial" font-size="14.00" fill="#666666">[timestamp with time zone]</text>
<polygon fill="none" stroke="#000000" points="349,-1623.5 349,-1653.5 602,-1653.5 602,-1623.5 349,-1623.5"/>
<text text-anchor="start" x="356" y="-1634.9" font-family="Arial" font-size="14.00" fill="#000000">height </text>
<text text-anchor="start" x="398.0182" y="-1634.9" font-family="Arial" font-size="14.00" fill="#666666">[bigint]</text>
<polygon fill="none" stroke="#000000" points="349,-1593.5 349,-1623.5 602,-1623.5 602,-1593.5 349,-1593.5"/>
<text text-anchor="start" x="356" y="-1604.9" font-family="Arial" font-size="14.00" fill="#000000">id </text>
<text text-anchor="start" x="370.7798" y="-1604.9" font-family="Arial" font-size="14.00" fill="#666666">[uuid]</text>
<polygon fill="none" stroke="#000000" points="349,-1563.5 349,-1593.5 602,-1593.5 602,-1563.5 349,-1563.5"/>
<text text-anchor="start" x="356" y="-1574.9" font-family="Arial" font-size="14.00" fill="#000000">kind </text>
<text text-anchor="start" x="385.5624" y="-1574.9" font-family="Arial" font-size="14.00" fill="#666666">[text]</text>
<polygon fill="none" stroke="#000000" points="349,-1533.5 349,-1563.5 602,-1563.5 602,-1533.5 349,-1533.5"/>
<text text-anchor="start" x="356" y="-1544.9" font-family="Arial" font-size="14.00" fill="#000000">mekatek_payment </text>
<text text-anchor="start" x="474.2538" y="-1544.9" font-family="Arial" font-size="14.00" fill="#666666">[bigint]</text>
<polygon fill="none" stroke="#000000" points="349,-1503.5 349,-1533.5 602,-1533.5 602,-1503.5 349,-1503.5"/>
<text text-anchor="start" x="356" y="-1514.9" font-family="Arial" font-size="14.00" fill="#000000">payments </text>
<text text-anchor="start" x="420.5722" y="-1514.9" font-family="Arial" font-size="14.00" fill="#666666">[jsonb]</text>
<polygon fill="none" stroke="#000000" points="349,-1473.5 349,-1503.5 602,-1503.5 602,-1473.5 349,-1473.5"/>
<text text-anchor="start" x="356" y="-1484.9" font-family="Arial" font-size="14.00" fill="#000000">priority </text>
<text text-anchor="start" x="401.8808" y="-1484.9" font-family="Arial" font-size="14.00" fill="#666666">[bigint]</text>
<polygon fill="none" stroke="#000000" points="349,-1443.5 349,-1473.5 602,-1473.5 602,-1443.5 349,-1443.5"/>
<text text-anchor="start" x="356" y="-1454.9" font-family="Arial" font-size="14.00" fill="#000000">state </text>
<text text-anchor="start" x="390.237" y="-1454.9" font-family="Arial" font-size="14.00" fill="#666666">[text]</text>
<polygon fill="none" stroke="#000000" points="349,-1413.5 349,-1443.5 602,-1443.5 602,-1413.5 349,-1413.5"/>
<text text-anchor="start" x="356" y="-1424.9" font-family="Arial" font-size="14.00" fill="#000000">txs </text>
<text text-anchor="start" x="377.7812" y="-1424.9" font-family="Arial" font-size="14.00" fill="#666666">[bytea[]]</text>
<polygon fill="none" stroke="#000000" points="349,-1383.5 349,-1413.5 602,-1413.5 602,-1383.5 349,-1383.5"/>
<text text-anchor="start" x="355.6915" y="-1394.9" font-family="Arial" font-size="14.00" fill="#000000">updated_at </text>
<text text-anchor="start" x="429.6241" y="-1394.9" font-family="Arial" font-size="14.00" fill="#666666">[timestamp with time zone]</text>
<polygon fill="none" stroke="#000000" points="349,-1353.5 349,-1383.5 602,-1383.5 602,-1353.5 349,-1353.5"/>
<text text-anchor="start" x="356" y="-1364.9" font-family="Arial" font-size="14.00" fill="#000000">validator_payment </text>
<text text-anchor="start" x="474.2496" y="-1364.9" font-family="Arial" font-size="14.00" fill="#666666">[bigint]</text>
</g>
<!-- public.bids&#45;&gt;public.auctions -->
<g id="edge3" class="edge">
<title>public.bids:chain_id&#45;&gt;public.auctions:chain_id</title>
<path fill="none" stroke="#000000" d="M338.7244,-1698.1482C119.3045,-1682.9671 123.6999,-1181.5 350,-1181.5"/>
<polygon fill="#000000" stroke="#000000" points="339.0059,-1698.1578 348.846,-1702.9974 344.0029,-1698.3289 349,-1698.5 349,-1698.5 349,-1698.5 344.0029,-1698.3289 349.154,-1694.0026 339.0059,-1698.1578 339.0059,-1698.1578"/>
<text text-anchor="start" x="7.197" y="-1708.5" font-family="Arial" font-size="10.00" fill="#000000">FOREIGN KEY (chain_id, height) REFERENCES auctions(chain_id, height)</text>
</g>
<!-- public.challenges -->
<g id="node4" class="node">
<title>public.challenges</title>
<polygon fill="#efefef" stroke="transparent" points="57,-709.5 57,-744.5 306,-744.5 306,-709.5 57,-709.5"/>
<polygon fill="none" stroke="#000000" points="57,-709.5 57,-744.5 306,-744.5 306,-709.5 57,-709.5"/>
<text text-anchor="start" x="63.8557" y="-722.3" font-family="Arial Bold" font-size="18.00" fill="#000000">public.challenges</text>
<text text-anchor="start" x="201.8905" y="-722.3" font-family="Arial" font-size="14.00" fill="#000000"> </text>
<text text-anchor="start" x="205.7811" y="-722.3" font-family="Arial" font-size="14.00" fill="#666666">[BASE TABLE]</text>
<polygon fill="none" stroke="#000000" points="57,-679.5 57,-709.5 306,-709.5 306,-679.5 57,-679.5"/>
<text text-anchor="start" x="64" y="-690.9" font-family="Arial" font-size="14.00" fill="#000000">chain_id </text>
<text text-anchor="start" x="120.0168" y="-690.9" font-family="Arial" font-size="14.00" fill="#666666">[text]</text>
<polygon fill="none" stroke="#000000" points="57,-649.5 57,-679.5 306,-679.5 306,-649.5 57,-649.5"/>
<text text-anchor="start" x="64" y="-660.9" font-family="Arial" font-size="14.00" fill="#000000">challenge </text>
<text text-anchor="start" x="127.7994" y="-660.9" font-family="Arial" font-size="14.00" fill="#666666">[bytea]</text>
<polygon fill="none" stroke="#000000" points="57,-619.5 57,-649.5 306,-649.5 306,-619.5 57,-619.5"/>
<text text-anchor="start" x="63.6438" y="-630.9" font-family="Arial" font-size="14.00" fill="#000000">created_at </text>
<text text-anchor="start" x="133.6718" y="-630.9" font-family="Arial" font-size="14.00" fill="#666666">[timestamp with time zone]</text>
<polygon fill="none" stroke="#000000" points="57,-589.5 57,-619.5 306,-619.5 306,-589.5 57,-589.5"/>
<text text-anchor="start" x="64" y="-600.9" font-family="Arial" font-size="14.00" fill="#000000">id </text>
<text text-anchor="start" x="78.7798" y="-600.9" font-family="Arial" font-size="14.00" fill="#666666">[uuid]</text>
<polygon fill="none" stroke="#000000" points="57,-559.5 57,-589.5 306,-589.5 306,-559.5 57,-559.5"/>
<text text-anchor="start" x="64" y="-570.9" font-family="Arial" font-size="14.00" fill="#000000">payment_address </text>
<text text-anchor="start" x="179.1458" y="-570.9" font-family="Arial" font-size="14.00" fill="#666666">[text]</text>
<polygon fill="none" stroke="#000000" points="57,-529.5 57,-559.5 306,-559.5 306,-529.5 57,-529.5"/>
<text text-anchor="start" x="64" y="-540.9" font-family="Arial" font-size="14.00" fill="#000000">pub_key_bytes </text>
<text text-anchor="start" x="162.042" y="-540.9" font-family="Arial" font-size="14.00" fill="#666666">[bytea]</text>
<polygon fill="none" stroke="#000000" points="57,-499.5 57,-529.5 306,-529.5 306,-499.5 57,-499.5"/>
<text text-anchor="start" x="64" y="-510.9" font-family="Arial" font-size="14.00" fill="#000000">pub_key_type </text>
<text text-anchor="start" x="155.042" y="-510.9" font-family="Arial" font-size="14.00" fill="#666666">[text]</text>
<polygon fill="none" stroke="#000000" points="57,-469.5 57,-499.5 306,-499.5 306,-469.5 57,-469.5"/>
<text text-anchor="start" x="64" y="-480.9" font-family="Arial" font-size="14.00" fill="#000000">validator_address </text>
<text text-anchor="start" x="178.359" y="-480.9" font-family="Arial" font-size="14.00" fill="#666666">[text]</text>
</g>
<!-- public.challenges&#45;&gt;public.chains -->
<g id="edge4" class="edge">
<title>public.challenges:chain_id&#45;&gt;public.chains:id</title>
<path fill="none" stroke="#000000" d="M315.8239,-692.2159C361.7045,-669.0236 332.7604,-476.0161 306,-427 291.8217,-401.0301 264.1783,-416.9699 250,-391 223.6979,-342.8233 195.1111,-267.5 250,-267.5"/>
<polygon fill="#000000" stroke="#000000" points="315.7402,-692.2353 304.9809,-690.1169 310.8701,-693.3676 306,-694.5 306,-694.5 306,-694.5 310.8701,-693.3676 307.0191,-698.8831 315.7402,-692.2353 315.7402,-692.2353"/>
<text text-anchor="start" x="312.8855" y="-704.5" font-family="Arial" font-size="10.00" fill="#000000">FOREIGN KEY (chain_id) REFERENCES chains(id)</text>
</g>
<!-- public.schema_version -->
<g id="node5" class="node">
<title>public.schema_version</title>
<polygon fill="#efefef" stroke="transparent" points="706,-1548.5 706,-1583.5 1000,-1583.5 1000,-1548.5 706,-1548.5"/>
<polygon fill="none" stroke="#000000" points="706,-1548.5 706,-1583.5 1000,-1583.5 1000,-1548.5 706,-1548.5"/>
<text text-anchor="start" x="712.8575" y="-1561.3" font-family="Arial Bold" font-size="18.00" fill="#000000">public.schema_version</text>
<text text-anchor="start" x="895.8887" y="-1561.3" font-family="Arial" font-size="14.00" fill="#000000"> </text>
<text text-anchor="start" x="899.7793" y="-1561.3" font-family="Arial" font-size="14.00" fill="#666666">[BASE TABLE]</text>
<polygon fill="none" stroke="#000000" points="706,-1518.5 706,-1548.5 1000,-1548.5 1000,-1518.5 706,-1518.5"/>
<text text-anchor="start" x="713" y="-1529.9" font-family="Arial" font-size="14.00" fill="#000000">version </text>
<text text-anchor="start" x="762.0056" y="-1529.9" font-family="Arial" font-size="14.00" fill="#666666">[integer]</text>
</g>
<!-- public.validators&#45;&gt;public.chains -->
<g id="edge5" class="edge">
<title>public.validators:chain_id&#45;&gt;public.chains:id</title>
<path fill="none" stroke="#000000" d="M438.86,-648.9474C361.1014,-639.9636 413.9209,-523.3813 449,-442 462.0673,-411.6846 489.9327,-421.3154 503,-391 524.7271,-340.5944 557.8889,-267.5 503,-267.5"/>
<polygon fill="#000000" stroke="#000000" points="439.0148,-648.9558 448.7551,-653.9933 444.0074,-649.2279 449,-649.5 449,-649.5 449,-649.5 444.0074,-649.2279 449.2449,-645.0067 439.0148,-648.9558 439.0148,-648.9558"/>
<text text-anchor="start" x="271.3855" y="-633.5" font-family="Arial" font-size="10.00" fill="#000000">FOREIGN KEY (chain_id) REFERENCES chains(id)</text>
</g>
</g>
</svg>
